<svg width="38" height="37" viewBox="0 0 38 37" fill="none" xmlns="http://www.w3.org/2000/svg">
<path d="M7.73194 1.36425C6.67434 1.42858 6.02615 2.5523 6.5 3.5L0.461976 34.619C0.222469 35.8534 1.16795 37 2.42536 37H35.5C36.7817 37 37.7328 35.8185 37.4459 34.5694C36.1421 28.8927 32.7916 14.559 30.1625 5.5C29.8986 4.59066 29.7947 3.72726 29.778 2.9655C29.7467 1.53776 28.59 0.0956426 27.1645 0.18234L7.73194 1.36425Z" fill="#35394C"/>
<path d="M12 11C16.3333 24.3333 20.6667 24.3333 25 11" stroke="white"/>
<path d="M11.9 11.169C12.9493 11.169 13.8 10.2357 13.8 9.08451C13.8 7.93327 12.9493 7 11.9 7C10.8507 7 10 7.93327 10 9.08451C10 10.2357 10.8507 11.169 11.9 11.169Z" fill="white"/>
<path d="M24.9 11.169C25.9493 11.169 26.8 10.2357 26.8 9.08451C26.8 7.93327 25.9493 7 24.9 7C23.8507 7 23 7.93327 23 9.08451C23 10.2357 23.8507 11.169 24.9 11.169Z" fill="white"/>
</svg>
