<svg width="20" height="20" viewBox="0 0 20 20" fill="none" xmlns="http://www.w3.org/2000/svg">
<path fill-rule="evenodd" clip-rule="evenodd" d="M1.50659 4.16871C1.50659 3.31914 1.84408 2.50436 2.44482 1.90362C3.04556 1.30288 3.86033 0.965393 4.70991 0.965393H15.9215C16.7711 0.965393 17.5859 1.30288 18.1866 1.90362C18.7873 2.50436 19.1248 3.31914 19.1248 4.16871V15.3803C19.1248 16.2299 18.7873 17.0447 18.1866 17.6454C17.5859 18.2461 16.7711 18.5836 15.9215 18.5836H4.70991C3.86033 18.5836 3.04556 18.2461 2.44482 17.6454C1.84408 17.0447 1.50659 16.2299 1.50659 15.3803V4.16871ZM4.70991 2.56705H15.9215C16.3463 2.56705 16.7537 2.7358 17.054 3.03616C17.3544 3.33653 17.5232 3.74392 17.5232 4.16871V15.3803C17.5232 15.8051 17.3544 16.2125 17.054 16.5128C16.7537 16.8132 16.3463 16.982 15.9215 16.982H4.70991C4.28512 16.982 3.87773 16.8132 3.57736 16.5128C3.27699 16.2125 3.10825 15.8051 3.10825 15.3803V4.16871C3.10825 3.74392 3.27699 3.33653 3.57736 3.03616C3.87773 2.7358 4.28512 2.56705 4.70991 2.56705Z" fill="#AAA3A3"/>
</svg>
