<svg width="20" height="20" viewBox="0 0 20 20" fill="none" xmlns="http://www.w3.org/2000/svg">
<path d="M8.90866 13.4602L5.51074 10.0615L6.64311 8.92912L8.90866 11.1939L13.4381 6.66357L14.5713 7.79675L8.90866 13.4602Z" fill="#439CB0"/>
<path fill-rule="evenodd" clip-rule="evenodd" d="M1.50659 4.3996C1.50659 3.55003 1.84408 2.73526 2.44482 2.13452C3.04556 1.53378 3.86033 1.19629 4.70991 1.19629H15.9215C16.7711 1.19629 17.5859 1.53378 18.1866 2.13452C18.7873 2.73526 19.1248 3.55003 19.1248 4.3996V15.6112C19.1248 16.4608 18.7873 17.2755 18.1866 17.8763C17.5859 18.477 16.7711 18.8145 15.9215 18.8145H4.70991C3.86033 18.8145 3.04556 18.477 2.44482 17.8763C1.84408 17.2755 1.50659 16.4608 1.50659 15.6112V4.3996ZM4.70991 2.79795H15.9215C16.3463 2.79795 16.7537 2.96669 17.054 3.26706C17.3544 3.56743 17.5232 3.97482 17.5232 4.3996V15.6112C17.5232 16.036 17.3544 16.4434 17.054 16.7437C16.7537 17.0441 16.3463 17.2129 15.9215 17.2129H4.70991C4.28512 17.2129 3.87773 17.0441 3.57736 16.7437C3.27699 16.4434 3.10825 16.036 3.10825 15.6112V4.3996C3.10825 3.97482 3.27699 3.56743 3.57736 3.26706C3.87773 2.96669 4.28512 2.79795 4.70991 2.79795Z" fill="#439CB0"/>
</svg>
