<svg width="690" height="99" viewBox="0 0 690 99" fill="none" xmlns="http://www.w3.org/2000/svg">
<path d="M0 31.9556C0 14.307 14.307 0 31.9556 0H47.0889L94.5004 8.39233e-05H152.573L245.152 2.01201H512.79H559.921L656.053 0.327517C667.041 0.134975 676.756 7.43043 679.635 18.0365L685.216 38.5956C687.499 47.0062 687.377 55.8886 684.863 64.233C684.647 64.9493 683.999 65.4486 683.251 65.4747L657.279 66.3794L682.917 68.6121C683.844 68.6928 684.594 69.4033 684.724 70.3255L684.857 71.2729C686.892 85.7167 675.678 98.6208 661.092 98.6208H626.41H559.921L523.751 94.3535L498.845 88.6639L470.389 85.819L505.422 92.2312C506.627 92.4518 506.455 94.2292 505.23 94.2148L192.398 90.5336L72.0889 94.3535L43.4561 89.4948C18.3619 85.2365 0.000137118 63.4964 7.7981e-06 38.0435C3.52831e-06 37.2032 0.694156 36.5288 1.53419 36.5531L32.7727 37.457L0.752197 32.8244C0.320399 32.762 0 32.3919 0 31.9556Z" fill="#554030"/>
<path d="M110.705 57.9088C110.097 57.9088 109.569 57.8288 109.121 57.6688C108.577 57.5088 108.305 57.0608 108.305 56.3248V28.4368C108.305 27.8928 108.209 27.0768 108.017 25.9888C107.793 24.9968 107.681 24.1808 107.681 23.5408V23.3968C108.225 22.5008 108.625 21.9248 108.881 21.6688C109.329 21.6688 109.921 21.6048 110.657 21.4768C111.329 21.3488 111.921 21.2848 112.433 21.2848C112.945 21.2848 113.441 21.4448 113.921 21.7648C114.401 22.0528 114.641 22.4048 114.641 22.8208C114.641 23.7808 113.905 24.2608 112.433 24.2608H111.761C111.569 24.2288 111.345 24.2128 111.089 24.2128C110.801 24.2128 110.625 24.2288 110.561 24.2608C110.561 25.3488 110.625 26.6608 110.753 28.1968L110.849 29.5408L110.945 32.1808C110.945 32.7888 110.897 33.7168 110.801 34.9648L110.705 37.6528L111.377 37.5088C112.017 37.3168 112.545 37.2208 112.961 37.2208C113.313 37.2208 113.633 37.3648 113.921 37.6528C114.209 37.9088 114.353 38.2128 114.353 38.5648C114.353 38.9488 114.225 39.3008 113.969 39.6208C113.745 39.9088 113.457 40.0528 113.105 40.0528L112.529 40.0048H111.905C111.425 40.0048 111.089 40.1168 110.897 40.3408V55.1728L113.585 55.0288C115.409 55.0288 116.321 55.4448 116.321 56.2768V56.4688C116.129 56.8528 115.777 57.1728 115.265 57.4288C114.753 57.6528 114.257 57.7968 113.777 57.8608L112.193 57.9088H110.705ZM121.76 57.7648C121.376 57.7648 121.04 57.6688 120.752 57.4768C120.464 57.2848 120.32 57.0128 120.32 56.6608C120.32 55.6368 120.448 54.5008 120.704 53.2528C120.992 51.9728 121.392 50.4528 121.904 48.6928L122.384 46.8208C122.832 45.0288 123.056 43.4768 123.056 42.1648C123.056 41.2368 122.64 38.9488 121.808 35.3008C121.008 31.6528 120.432 29.5728 120.08 29.0608V28.5328C119.76 28.2448 119.6 27.8448 119.6 27.3328C119.6 27.0448 119.744 26.8208 120.032 26.6608C120.32 26.4688 120.656 26.3728 121.04 26.3728C121.424 26.3728 121.744 26.6448 122 27.1888C122.48 28.0848 122.96 29.7328 123.44 32.1328C123.696 33.2208 123.872 34.1328 123.968 34.8688L124.304 36.6448C124.304 36.6448 124.368 36.2608 124.496 35.4928L124.64 34.5328C124.768 33.7648 124.848 33.2528 124.88 32.9968C125.008 32.1328 125.072 31.3008 125.072 30.5008V29.6368V28.9168C125.072 28.0208 125.216 27.3328 125.504 26.8528C125.824 26.3728 126.4 26.0208 127.232 25.7968L128.096 26.9488C127.872 27.3008 127.68 27.7328 127.52 28.2448C127.392 28.7568 127.328 29.2048 127.328 29.5888C127.296 29.8128 127.28 30.3088 127.28 31.0768V31.6048C126.896 32.6288 126.496 34.4208 126.08 36.9808C125.664 39.5088 125.456 41.3488 125.456 42.5008C125.456 43.4928 125.664 44.7568 126.08 46.2928C126.528 47.7968 127.184 49.8928 128.048 52.5808C128.624 54.3088 128.912 55.5728 128.912 56.3728C128.912 56.6928 128.784 56.9808 128.528 57.2368C128.272 57.4608 127.968 57.5728 127.616 57.5728C127.072 57.5728 126.592 56.9968 126.176 55.8448C125.76 54.8848 125.408 53.6688 125.12 52.1968C124.736 50.4048 124.512 49.2048 124.448 48.5968L124.208 47.4928L123.776 51.0448C123.584 52.8048 123.328 54.2768 123.008 55.4608V55.9888C123.008 57.1728 122.592 57.7648 121.76 57.7648ZM134.104 57.9568C133.688 56.2608 133.48 53.9088 133.48 50.9008L133.576 46.6288C133.64 45.3488 133.672 43.9248 133.672 42.3568C133.48 41.9088 133.384 41.5088 133.384 41.1568V41.0128C133.704 40.4048 133.864 39.0288 133.864 36.8848L133.912 34.6768C133.944 33.9728 133.96 33.1888 133.96 32.3248C133.96 30.4368 133.832 28.9488 133.576 27.8608C133.672 27.4128 133.832 27.0288 134.056 26.7088C134.28 26.3568 134.552 26.1808 134.872 26.1808H136.984C137.88 26.1808 138.664 26.3888 139.336 26.8048C140.008 27.1888 140.52 27.7488 140.872 28.4848C141.512 29.7968 141.832 31.3488 141.832 33.1408C141.832 34.4208 141.816 35.4288 141.784 36.1648C141.72 37.0928 141.56 37.9408 141.304 38.7088C141.208 39.1248 141.064 39.4768 140.872 39.7648C140.712 40.0208 140.472 40.3408 140.152 40.7248C139.704 41.2688 138.968 41.7808 137.944 42.2608C137.528 42.4848 136.984 42.6928 136.312 42.8848V48.0208L136.408 51.0928L136.504 52.5808C136.632 54.3728 136.696 55.8928 136.696 57.1408C136.696 57.5248 136.536 57.8448 136.216 58.1008C135.896 58.3888 135.528 58.5328 135.112 58.5328L134.104 57.9568ZM136.36 40.9168C138.248 40.6288 139.192 37.9248 139.192 32.8048C139.192 31.8768 139.144 31.1568 139.048 30.6448C138.952 30.2608 138.824 29.9568 138.664 29.7328C138.504 29.4768 138.264 29.2688 137.944 29.1088C137.592 28.9168 137.208 28.8208 136.792 28.8208C136.792 28.7888 136.616 28.7728 136.264 28.7728V31.5088C136.264 33.3968 136.28 35.0768 136.312 36.5488C136.312 38.2128 136.328 39.3008 136.36 39.8128V40.8208V40.9168ZM153.94 58.3888C152.788 58.0048 151.364 57.8128 149.668 57.8128C149.156 58.1328 148.612 58.2928 148.036 58.2928C147.652 58.2928 147.316 58.1168 147.028 57.7648C146.772 57.4448 146.644 57.0928 146.644 56.7088C146.644 54.0208 146.756 50.4368 146.98 45.9568C147.172 41.1888 147.268 37.6208 147.268 35.2528V34.9168C147.076 32.9008 146.98 31.3968 146.98 30.4048C146.98 27.3648 147.54 25.8448 148.66 25.8448C148.98 25.8448 149.252 25.9728 149.476 26.2288C149.732 26.4528 149.86 26.7248 149.86 27.0448C149.86 27.4288 149.812 28.0368 149.716 28.8688C149.62 29.6688 149.572 30.2768 149.572 30.6928C149.572 32.8368 149.588 34.7728 149.62 36.5008C149.652 38.1968 149.668 40.1168 149.668 42.2608C149.508 42.7408 149.428 43.4128 149.428 44.2768V44.8528L149.332 48.6448C149.268 49.7648 149.236 51.0448 149.236 52.4848C149.236 54.6928 149.764 55.7968 150.82 55.7968C150.884 55.7968 150.98 55.7968 151.108 55.7968C151.268 55.7648 151.476 55.7488 151.732 55.7488C152.02 55.7168 152.388 55.7008 152.836 55.7008C154.564 55.7008 155.428 56.1808 155.428 57.1408C155.428 57.4608 155.284 57.7328 154.996 57.9568C154.708 58.1808 154.356 58.3248 153.94 58.3888ZM165.008 58.5328C164.176 58.5328 163.408 58.2608 162.704 57.7168C162 57.2048 161.424 56.5008 160.976 55.6048C160.048 53.6528 159.472 51.5248 159.248 49.2208C158.96 47.0448 158.816 44.9488 158.816 42.9328C158.816 42.5488 158.832 42.2288 158.864 41.9728V41.1088C158.864 40.9488 158.848 40.8688 158.816 40.8688V40.0048L158.864 36.6448C158.896 35.6208 159.024 33.9888 159.248 31.7488C159.408 30.2128 159.776 28.7248 160.352 27.2848C160.576 26.6448 160.864 26.1648 161.216 25.8448C161.568 25.4928 161.968 25.3168 162.416 25.3168C163.696 25.3168 164.848 25.5568 165.872 26.0368C166.896 26.4848 167.76 27.1248 168.464 27.9568C169.104 28.7568 169.648 29.7488 170.096 30.9328C170.544 32.0848 170.864 33.3168 171.056 34.6288C171.248 35.9728 171.344 37.3968 171.344 38.9008V39.2848C171.344 40.2768 171.36 41.1728 171.392 41.9728L171.44 44.7088C171.44 53.9248 169.296 58.5328 165.008 58.5328ZM164.816 56.5168C165.392 56.5168 165.92 56.2928 166.4 55.8448C166.88 55.3648 167.248 54.7248 167.504 53.9248C168.112 52.2928 168.48 50.5328 168.608 48.6448C168.768 47.0128 168.848 45.6048 168.848 44.4208C168.848 42.9808 168.736 41.0928 168.512 38.7568C168.32 36.2928 168.224 34.4528 168.224 33.2368V32.3728C168.16 31.1568 167.744 30.1008 166.976 29.2048C166.24 28.3088 165.328 27.8608 164.24 27.8608C163.152 27.8608 162.432 28.4848 162.08 29.7328C161.76 30.7248 161.6 32.0048 161.6 33.5728C161.6 34.1808 161.616 34.6928 161.648 35.1088V36.4048L161.552 38.6128C161.488 39.2848 161.456 40.0208 161.456 40.8208C161.456 42.5488 161.504 44.2608 161.6 45.9568C161.728 48.3568 162.048 50.6928 162.56 52.9648C163.072 55.3328 163.824 56.5168 164.816 56.5168ZM185.088 58.4368C184.384 58.4368 183.744 57.6688 183.168 56.1328C182.496 54.4688 182 52.7568 181.68 50.9968L181.344 49.3648C180.416 44.7888 179.824 42.1808 179.568 41.5408H178.992C178.992 42.4688 178.976 43.3168 178.944 44.0848V46.7248C178.944 51.0128 179.248 54.3568 179.856 56.7568L179.328 58.0528H177.984L177.36 57.3328L177.408 54.1168C177.408 51.2368 177.264 46.8688 176.976 41.0128C176.72 34.7728 176.592 30.4048 176.592 27.9088C176.592 26.3728 177.12 25.6048 178.176 25.6048C179.904 25.6048 181.312 26.0528 182.4 26.9488C183.52 27.8448 184.08 29.0928 184.08 30.6928V34.0528C184.08 34.5328 184 35.0928 183.84 35.7328C183.68 36.3408 183.504 36.8368 183.312 37.2208L182.4 38.9488L181.632 40.3888L181.872 41.5408L182.544 44.9488C182.992 47.4128 183.424 49.4128 183.84 50.9488C184.256 52.4848 184.768 53.8768 185.376 55.1248L185.664 55.7008C185.984 56.3408 186.144 56.8528 186.144 57.2368C186.144 57.5568 186.048 57.8288 185.856 58.0528C185.664 58.3088 185.408 58.4368 185.088 58.4368ZM179.184 39.1888C179.888 38.8368 180.48 37.8768 180.96 36.3088C181.472 34.7088 181.728 33.2368 181.728 31.8928C181.728 30.8688 181.6 29.9088 181.344 29.0128C181.184 28.5008 180.912 28.1168 180.528 27.8608C180.176 27.5728 179.728 27.4288 179.184 27.4288L179.088 27.6688L178.992 28.1008L179.088 33.7648C179.152 35.4288 179.184 37.2368 179.184 39.1888ZM193.053 58.2448C192.637 58.2448 192.253 58.1008 191.901 57.8128C191.581 57.5248 191.405 57.1728 191.373 56.7568V55.5088V54.5488C191.341 54.2608 191.325 53.9248 191.325 53.5408C191.325 52.8688 191.277 51.8448 191.181 50.4688L191.085 47.3968C191.085 45.8288 191.133 43.4928 191.229 40.3888C191.357 37.6048 191.421 35.2688 191.421 33.3808C191.421 32.9328 191.373 32.2608 191.277 31.3648C191.181 30.4368 191.133 29.7648 191.133 29.3488C191.133 27.0768 191.805 25.9408 193.149 25.9408C194.205 25.9408 195.421 26.1488 196.797 26.5648C198.205 26.9808 198.909 27.4768 198.909 28.0528C198.909 28.3728 198.765 28.6768 198.477 28.9648C198.221 29.2208 197.901 29.4288 197.517 29.5888C196.173 29.1088 194.957 28.7888 193.869 28.6288C193.901 29.1088 193.917 29.7968 193.917 30.6928C193.917 31.9728 193.901 33.1248 193.869 34.1488C193.773 35.6848 193.725 36.8368 193.725 37.6048L193.869 38.3728L194.637 38.3248C194.893 38.2928 195.213 38.2768 195.597 38.2768C197.133 38.2768 197.901 38.7248 197.901 39.6208C197.901 39.9728 197.757 40.2768 197.469 40.5328C197.181 40.7568 196.813 40.8688 196.365 40.8688C195.789 40.8688 195.341 40.8368 195.021 40.7728H193.821C193.885 41.6048 193.917 42.8208 193.917 44.4208C193.917 46.0208 193.901 47.4608 193.869 48.7408C193.773 50.6928 193.725 52.1488 193.725 53.1088C193.725 54.9008 193.757 55.7968 193.821 55.7968L195.405 55.7488C195.949 55.7168 196.605 55.7008 197.373 55.7008C198.589 55.7008 199.197 56.0848 199.197 56.8528C199.197 57.3008 198.989 57.6368 198.573 57.8608C198.189 58.1168 197.709 58.2448 197.133 58.2448H193.053ZM215.939 56.8528L215.891 54.9808C215.859 54.4368 215.843 53.8288 215.843 53.1568L215.891 51.5248C215.795 51.1728 215.555 47.6688 215.171 41.0128C214.787 34.3568 214.563 30.0848 214.499 28.1968C212.643 28.1328 211.459 27.9408 210.947 27.6208C210.595 27.3648 210.419 27.0768 210.419 26.7568C210.419 26.5008 210.579 26.2768 210.899 26.0848C211.251 25.8608 211.603 25.7488 211.955 25.7488C212.851 25.7488 213.939 25.8128 215.219 25.9408C216.435 26.1008 217.523 26.1808 218.483 26.1808H218.867H219.251C220.243 26.1808 220.739 26.5648 220.739 27.3328C220.739 27.7168 220.579 28.0368 220.259 28.2928C219.939 28.5168 219.571 28.6288 219.155 28.6288C218.867 28.6288 218.451 28.5808 217.907 28.4848L216.947 28.2928L216.899 28.5328L216.851 28.7728C216.851 31.6208 217.123 36.1648 217.667 42.4048C218.179 48.2608 218.435 52.8048 218.435 56.0368C218.435 56.4208 218.259 56.7568 217.907 57.0448C217.587 57.3328 217.219 57.4768 216.803 57.4768L215.939 56.8528ZM233.98 57.6208C232.892 57.6208 232.348 54.9808 232.348 49.7008L232.396 46.9648L232.444 44.7568V44.6128V44.1328C232.476 43.8768 232.492 43.5728 232.492 43.2208C232.492 43.1568 232.444 43.0768 232.348 42.9808C232.252 42.8848 232.204 42.8048 232.204 42.7408V42.6928C232.044 42.7568 231.756 42.7888 231.34 42.7888C230.924 42.7888 230.412 42.7248 229.804 42.5968C229.612 42.5648 229.1 42.4848 228.268 42.3568V47.8768C228.268 48.7088 228.316 50.0208 228.412 51.8128C228.508 53.5728 228.556 54.8848 228.556 55.7488C228.556 56.2288 228.428 56.6448 228.172 56.9968C227.916 57.3488 227.58 57.5248 227.164 57.5248C226.556 57.5248 226.124 56.9328 225.868 55.7488C225.612 54.5328 225.484 52.9488 225.484 50.9968L225.58 47.1088C225.612 46.0208 225.628 44.8688 225.628 43.6528V42.8368V42.1648C225.628 41.6528 225.612 41.3168 225.58 41.1568V40.9168L225.724 38.1328C225.724 36.9168 225.676 35.1088 225.58 32.7088C225.484 30.3088 225.436 28.5008 225.436 27.2848C225.436 26.9008 225.564 26.5648 225.82 26.2768C226.076 25.9888 226.396 25.8448 226.78 25.8448C227.804 25.8448 228.316 26.8048 228.316 28.7248L228.22 34.6768C228.156 36.4688 228.124 38.4688 228.124 40.6768C228.604 40.8368 229.468 40.9168 230.716 40.9168H232.492C232.556 40.7248 232.588 40.5328 232.588 40.3408C232.588 38.8048 232.492 36.5328 232.3 33.5248C232.076 30.7088 231.964 28.4208 231.964 26.6608C231.964 26.3088 232.092 26.0208 232.348 25.7968C232.636 25.5408 232.972 25.4128 233.356 25.4128C233.58 25.4128 233.9 25.4928 234.316 25.6528L234.748 25.8448C234.748 30.3888 234.908 36.4528 235.228 44.0368L235.66 56.1808C235.66 56.6288 235.484 56.9808 235.132 57.2368C234.812 57.4928 234.428 57.6208 233.98 57.6208ZM243.631 58.2448C243.215 58.2448 242.831 58.1008 242.479 57.8128C242.159 57.5248 241.983 57.1728 241.951 56.7568V55.5088V54.5488C241.919 54.2608 241.903 53.9248 241.903 53.5408C241.903 52.8688 241.855 51.8448 241.759 50.4688L241.663 47.3968C241.663 45.8288 241.711 43.4928 241.807 40.3888C241.935 37.6048 241.999 35.2688 241.999 33.3808C241.999 32.9328 241.951 32.2608 241.855 31.3648C241.759 30.4368 241.711 29.7648 241.711 29.3488C241.711 27.0768 242.383 25.9408 243.727 25.9408C244.783 25.9408 245.999 26.1488 247.375 26.5648C248.783 26.9808 249.487 27.4768 249.487 28.0528C249.487 28.3728 249.343 28.6768 249.055 28.9648C248.799 29.2208 248.479 29.4288 248.095 29.5888C246.751 29.1088 245.535 28.7888 244.447 28.6288C244.479 29.1088 244.495 29.7968 244.495 30.6928C244.495 31.9728 244.479 33.1248 244.447 34.1488C244.351 35.6848 244.303 36.8368 244.303 37.6048L244.447 38.3728L245.215 38.3248C245.471 38.2928 245.791 38.2768 246.175 38.2768C247.711 38.2768 248.479 38.7248 248.479 39.6208C248.479 39.9728 248.335 40.2768 248.047 40.5328C247.759 40.7568 247.391 40.8688 246.943 40.8688C246.367 40.8688 245.919 40.8368 245.599 40.7728H244.399C244.463 41.6048 244.495 42.8208 244.495 44.4208C244.495 46.0208 244.479 47.4608 244.447 48.7408C244.351 50.6928 244.303 52.1488 244.303 53.1088C244.303 54.9008 244.335 55.7968 244.399 55.7968L245.983 55.7488C246.527 55.7168 247.183 55.7008 247.951 55.7008C249.167 55.7008 249.775 56.0848 249.775 56.8528C249.775 57.3008 249.567 57.6368 249.151 57.8608C248.767 58.1168 248.287 58.2448 247.711 58.2448H243.631ZM267.333 58.6288C266.693 58.6288 266.133 57.6688 265.653 55.7488C265.237 54.0528 264.885 51.9568 264.597 49.4608C264.341 46.9328 264.069 43.7488 263.781 39.9088C263.621 37.4128 263.397 34.7408 263.109 31.8928C262.885 29.5248 262.613 28.0048 262.293 27.3328C262.581 26.7568 263.045 26.4688 263.685 26.4688C264.709 26.4688 265.221 27.5248 265.221 29.6368C265.221 32.1328 265.557 35.7808 266.229 40.5808C266.901 45.3488 267.285 48.8208 267.381 50.9968L267.621 49.3648C267.941 47.2208 268.213 45.2048 268.437 43.3168C268.693 41.3968 268.901 39.3328 269.061 37.1248C269.285 34.6608 269.397 32.2288 269.397 29.8288L270.693 29.2528C271.109 29.2528 271.445 29.3648 271.701 29.5888C271.989 29.7808 272.133 30.0688 272.133 30.4528V30.8368C272.645 32.6288 273.061 34.5968 273.381 36.7408C273.733 38.8528 274.037 41.3488 274.293 44.2288C274.485 46.4368 274.709 48.5008 274.965 50.4208C275.573 46.1328 275.877 40.8528 275.877 34.5808C275.877 33.5888 276.005 32.3728 276.261 30.9328C276.485 29.4608 276.597 28.2608 276.597 27.3328C276.501 27.0448 276.453 26.7728 276.453 26.5168C276.453 25.7488 276.933 25.3648 277.893 25.3648C278.277 25.3648 278.581 25.4608 278.805 25.6528C279.029 25.8448 279.141 26.1168 279.141 26.4688V27.1888C279.141 27.6688 279.093 28.0848 278.997 28.4368V28.6768C278.581 29.9568 278.373 31.4288 278.373 33.0928V36.5968C278.373 38.6128 278.133 41.6208 277.653 45.6208C277.141 49.5248 276.885 52.4368 276.885 54.3568V55.2208C276.885 55.9568 276.805 56.5808 276.645 57.0928C276.453 57.7328 275.989 58.0528 275.253 58.0528C274.741 58.0528 274.341 57.8928 274.053 57.5728C273.797 57.2208 273.669 56.7888 273.669 56.2768C273.669 53.6848 273.397 50.3248 272.853 46.1968C272.565 44.3408 272.261 42.4688 271.941 40.5808L271.173 35.5408C271.045 36.4688 270.981 37.3808 270.981 38.2768C270.981 40.0688 270.853 42.4368 270.597 45.3808C270.341 48.3248 269.941 51.1888 269.397 53.9728C268.789 57.0768 268.101 58.6288 267.333 58.6288ZM290.023 58.5328C289.191 58.5328 288.423 58.2608 287.719 57.7168C287.015 57.2048 286.439 56.5008 285.991 55.6048C285.063 53.6528 284.487 51.5248 284.263 49.2208C283.975 47.0448 283.831 44.9488 283.831 42.9328C283.831 42.5488 283.847 42.2288 283.879 41.9728V41.1088C283.879 40.9488 283.863 40.8688 283.831 40.8688V40.0048L283.879 36.6448C283.911 35.6208 284.039 33.9888 284.263 31.7488C284.423 30.2128 284.791 28.7248 285.367 27.2848C285.591 26.6448 285.879 26.1648 286.231 25.8448C286.583 25.4928 286.983 25.3168 287.431 25.3168C288.711 25.3168 289.863 25.5568 290.887 26.0368C291.911 26.4848 292.775 27.1248 293.479 27.9568C294.119 28.7568 294.663 29.7488 295.111 30.9328C295.559 32.0848 295.879 33.3168 296.071 34.6288C296.263 35.9728 296.359 37.3968 296.359 38.9008V39.2848C296.359 40.2768 296.375 41.1728 296.407 41.9728L296.455 44.7088C296.455 53.9248 294.311 58.5328 290.023 58.5328ZM289.831 56.5168C290.407 56.5168 290.935 56.2928 291.415 55.8448C291.895 55.3648 292.263 54.7248 292.519 53.9248C293.127 52.2928 293.495 50.5328 293.623 48.6448C293.783 47.0128 293.863 45.6048 293.863 44.4208C293.863 42.9808 293.751 41.0928 293.527 38.7568C293.335 36.2928 293.239 34.4528 293.239 33.2368V32.3728C293.175 31.1568 292.759 30.1008 291.991 29.2048C291.255 28.3088 290.343 27.8608 289.255 27.8608C288.167 27.8608 287.447 28.4848 287.095 29.7328C286.775 30.7248 286.615 32.0048 286.615 33.5728C286.615 34.1808 286.631 34.6928 286.663 35.1088V36.4048L286.567 38.6128C286.503 39.2848 286.471 40.0208 286.471 40.8208C286.471 42.5488 286.519 44.2608 286.615 45.9568C286.743 48.3568 287.063 50.6928 287.575 52.9648C288.087 55.3328 288.839 56.5168 289.831 56.5168ZM310.104 58.4368C309.4 58.4368 308.76 57.6688 308.184 56.1328C307.512 54.4688 307.016 52.7568 306.696 50.9968L306.36 49.3648C305.432 44.7888 304.84 42.1808 304.584 41.5408H304.008C304.008 42.4688 303.992 43.3168 303.96 44.0848V46.7248C303.96 51.0128 304.264 54.3568 304.872 56.7568L304.344 58.0528H303L302.376 57.3328L302.424 54.1168C302.424 51.2368 302.28 46.8688 301.992 41.0128C301.736 34.7728 301.608 30.4048 301.608 27.9088C301.608 26.3728 302.136 25.6048 303.192 25.6048C304.92 25.6048 306.328 26.0528 307.416 26.9488C308.536 27.8448 309.096 29.0928 309.096 30.6928V34.0528C309.096 34.5328 309.016 35.0928 308.856 35.7328C308.696 36.3408 308.52 36.8368 308.328 37.2208L307.416 38.9488L306.648 40.3888L306.888 41.5408L307.56 44.9488C308.008 47.4128 308.44 49.4128 308.856 50.9488C309.272 52.4848 309.784 53.8768 310.392 55.1248L310.68 55.7008C311 56.3408 311.16 56.8528 311.16 57.2368C311.16 57.5568 311.064 57.8288 310.872 58.0528C310.68 58.3088 310.424 58.4368 310.104 58.4368ZM304.2 39.1888C304.904 38.8368 305.496 37.8768 305.976 36.3088C306.488 34.7088 306.744 33.2368 306.744 31.8928C306.744 30.8688 306.616 29.9088 306.36 29.0128C306.2 28.5008 305.928 28.1168 305.544 27.8608C305.192 27.5728 304.744 27.4288 304.2 27.4288L304.104 27.6688L304.008 28.1008L304.104 33.7648C304.168 35.4288 304.2 37.2368 304.2 39.1888ZM323.252 58.3888C322.1 58.0048 320.676 57.8128 318.98 57.8128C318.468 58.1328 317.924 58.2928 317.348 58.2928C316.964 58.2928 316.628 58.1168 316.34 57.7648C316.084 57.4448 315.956 57.0928 315.956 56.7088C315.956 54.0208 316.068 50.4368 316.292 45.9568C316.484 41.1888 316.58 37.6208 316.58 35.2528V34.9168C316.388 32.9008 316.292 31.3968 316.292 30.4048C316.292 27.3648 316.852 25.8448 317.972 25.8448C318.292 25.8448 318.564 25.9728 318.788 26.2288C319.044 26.4528 319.172 26.7248 319.172 27.0448C319.172 27.4288 319.124 28.0368 319.028 28.8688C318.932 29.6688 318.884 30.2768 318.884 30.6928C318.884 32.8368 318.9 34.7728 318.932 36.5008C318.964 38.1968 318.98 40.1168 318.98 42.2608C318.82 42.7408 318.74 43.4128 318.74 44.2768V44.8528L318.644 48.6448C318.58 49.7648 318.548 51.0448 318.548 52.4848C318.548 54.6928 319.076 55.7968 320.132 55.7968C320.196 55.7968 320.292 55.7968 320.42 55.7968C320.58 55.7648 320.788 55.7488 321.044 55.7488C321.332 55.7168 321.7 55.7008 322.148 55.7008C323.876 55.7008 324.74 56.1808 324.74 57.1408C324.74 57.4608 324.596 57.7328 324.308 57.9568C324.02 58.1808 323.668 58.3248 323.252 58.3888ZM330.24 57.9088C329.408 57.9088 328.992 55.8128 328.992 51.6208L329.088 44.0368C329.12 41.7968 329.136 39.2848 329.136 36.5008C329.136 35.4768 329.04 33.8928 328.848 31.7488C328.688 29.4128 328.608 27.9888 328.608 27.4768C328.608 27.0608 328.784 26.6928 329.136 26.3728C329.488 26.0528 329.872 25.8928 330.288 25.8928C331.408 25.8928 332.48 26.1488 333.504 26.6608C334.56 27.1408 335.488 27.8288 336.288 28.7248C337.984 30.6768 339.104 32.8208 339.648 35.1568C339.936 36.3408 340.08 37.5088 340.08 38.6608C340.08 39.0768 340.064 39.4608 340.032 39.8128L339.984 41.1088V43.7488C339.984 45.7968 339.92 47.4128 339.792 48.5968C339.6 50.1968 339.232 51.6208 338.688 52.8688C338.048 54.2128 337.12 55.4128 335.904 56.4688C335.328 56.9488 334.592 57.4288 333.696 57.9088H330.24ZM332.352 55.4608C332.992 55.4608 333.584 55.3008 334.128 54.9808C334.672 54.6288 335.136 54.1648 335.52 53.5888C335.84 53.0768 336.128 52.4368 336.384 51.6688C336.672 50.8688 336.88 50.1008 337.008 49.3648C337.296 47.9248 337.472 46.4528 337.536 44.9488C337.568 44.5648 337.584 44.0048 337.584 43.2688C337.584 33.6048 335.712 28.5648 331.968 28.1488C331.744 29.5888 331.632 31.2528 331.632 33.1408C331.632 35.1568 331.76 38.6768 332.016 43.7008C332.24 48.1488 332.352 51.6848 332.352 54.3088V55.4608ZM359.679 58.5328C358.847 58.5328 358.079 58.2608 357.375 57.7168C356.671 57.2048 356.095 56.5008 355.647 55.6048C354.719 53.6528 354.143 51.5248 353.919 49.2208C353.631 47.0448 353.487 44.9488 353.487 42.9328C353.487 42.5488 353.503 42.2288 353.535 41.9728V41.1088C353.535 40.9488 353.519 40.8688 353.487 40.8688V40.0048L353.535 36.6448C353.567 35.6208 353.695 33.9888 353.919 31.7488C354.079 30.2128 354.447 28.7248 355.023 27.2848C355.247 26.6448 355.535 26.1648 355.887 25.8448C356.239 25.4928 356.639 25.3168 357.087 25.3168C358.367 25.3168 359.519 25.5568 360.543 26.0368C361.567 26.4848 362.431 27.1248 363.135 27.9568C363.775 28.7568 364.319 29.7488 364.767 30.9328C365.215 32.0848 365.535 33.3168 365.727 34.6288C365.919 35.9728 366.015 37.3968 366.015 38.9008V39.2848C366.015 40.2768 366.031 41.1728 366.063 41.9728L366.111 44.7088C366.111 53.9248 363.967 58.5328 359.679 58.5328ZM359.487 56.5168C360.063 56.5168 360.591 56.2928 361.071 55.8448C361.551 55.3648 361.919 54.7248 362.175 53.9248C362.783 52.2928 363.151 50.5328 363.279 48.6448C363.439 47.0128 363.519 45.6048 363.519 44.4208C363.519 42.9808 363.407 41.0928 363.183 38.7568C362.991 36.2928 362.895 34.4528 362.895 33.2368V32.3728C362.831 31.1568 362.415 30.1008 361.647 29.2048C360.911 28.3088 359.999 27.8608 358.911 27.8608C357.823 27.8608 357.103 28.4848 356.751 29.7328C356.431 30.7248 356.271 32.0048 356.271 33.5728C356.271 34.1808 356.287 34.6928 356.319 35.1088V36.4048L356.223 38.6128C356.159 39.2848 356.127 40.0208 356.127 40.8208C356.127 42.5488 356.175 44.2608 356.271 45.9568C356.399 48.3568 356.719 50.6928 357.231 52.9648C357.743 55.3328 358.495 56.5168 359.487 56.5168ZM372.368 58.0528C371.888 58.0528 371.312 57.8128 370.64 57.3328C370.896 54.6768 371.104 50.5968 371.264 45.0928C371.424 39.3648 371.536 35.9248 371.6 34.7728V33.6208C371.728 30.4848 371.792 28.3088 371.792 27.0928C371.792 26.6448 371.968 26.2928 372.32 26.0368C372.704 25.7808 373.136 25.6528 373.616 25.6528C374.736 25.6528 375.936 25.7488 377.216 25.9408C378.048 26.0688 378.704 26.2768 379.184 26.5648C379.696 26.8528 379.952 27.2048 379.952 27.6208C379.952 28.5168 379.136 28.9648 377.504 28.9648C376.896 28.6448 376.064 28.4848 375.008 28.4848H374.432V29.0608C374.432 30.3088 374.368 31.8928 374.24 33.8128C374.08 35.6048 374 37.2208 374 38.6608V39.9568H374.384H374.864C376.432 39.9568 377.216 40.3728 377.216 41.2048C377.216 41.6208 377.04 41.9568 376.688 42.2128C376.368 42.4688 375.968 42.5968 375.488 42.5968C374.72 42.5968 374.096 42.5168 373.616 42.3568V55.9408C373.616 57.3488 373.2 58.0528 372.368 58.0528ZM403.313 58.4368C402.577 58.4368 401.793 57.6368 400.961 56.0368C399.713 53.6368 398.481 49.6848 397.265 44.1808C396.913 42.6768 396.625 41.2848 396.401 40.0048C395.249 42.3088 394.673 45.0928 394.673 48.3568V57.2368C394.673 57.9728 394.353 58.3408 393.713 58.3408C393.233 58.3408 392.833 58.1968 392.513 57.9088C392.225 57.6528 392.081 57.2848 392.081 56.8048V42.2608C392.081 40.8528 392.241 38.2608 392.561 34.4848C392.881 31.1888 393.041 28.5968 393.041 26.7088C393.297 26.1008 393.761 25.7968 394.433 25.7968C394.849 25.7968 395.201 25.9408 395.489 26.2288C395.777 26.5168 395.921 26.8688 395.921 27.2848V27.4288C395.505 28.1328 395.297 31.0448 395.297 36.1648V37.8928L397.073 34.3888C398.161 32.1168 399.185 30.1648 400.145 28.5328C401.041 26.9328 401.697 26.1328 402.113 26.1328C402.625 26.1328 403.057 26.2448 403.409 26.4688C403.793 26.6928 403.985 27.0128 403.985 27.4288L402.833 29.3488C400.433 33.2208 399.089 35.4608 398.801 36.0688C398.801 36.6128 398.785 37.0928 398.753 37.5088L398.705 38.9488C398.705 40.3248 399.249 42.9008 400.337 46.6768C401.457 50.4208 402.385 52.9008 403.121 54.1168L403.745 54.9808C404.353 55.8128 404.657 56.5488 404.657 57.1888C404.657 57.5408 404.513 57.8288 404.225 58.0528C403.969 58.3088 403.665 58.4368 403.313 58.4368ZM411.167 57.5728C408.383 57.5728 406.991 57.0928 406.991 56.1328C406.991 55.3648 407.487 54.9808 408.479 54.9808H409.007L409.487 55.0288C409.743 55.0288 409.919 54.9488 410.015 54.7888C410.111 54.6288 410.159 54.3408 410.159 53.9248C410.159 53.3808 410.127 52.5328 410.063 51.3808C409.967 50.6128 409.855 49.2368 409.727 47.2528C409.439 42.3568 409.295 38.6608 409.295 36.1648C409.295 35.2688 409.311 34.4528 409.343 33.7168L409.391 31.2688C409.391 30.2128 409.343 29.3328 409.247 28.6288C408.735 28.7568 408.367 28.8208 408.143 28.8208C407.375 28.8208 406.991 28.4368 406.991 27.6688C406.991 27.2848 407.231 26.9488 407.711 26.6608C408.191 26.3728 408.799 26.1648 409.535 26.0368C410.815 25.7808 411.951 25.6528 412.943 25.6528C413.327 25.6528 413.647 25.7968 413.903 26.0848C414.191 26.3408 414.335 26.6448 414.335 26.9968C414.335 27.3488 414.223 27.6528 413.999 27.9088C413.807 28.1648 413.551 28.2928 413.231 28.2928C413.039 28.2928 412.879 28.2768 412.751 28.2448H412.367C412.047 28.2448 411.807 28.3248 411.647 28.4848C411.519 28.6128 411.455 28.8688 411.455 29.2528C411.455 32.3568 411.647 37.0288 412.031 43.2688C412.095 44.4208 412.223 46.1168 412.415 48.3568C412.575 49.8288 412.655 51.3328 412.655 52.8688V54.6928C412.847 54.6608 413.167 54.6448 413.615 54.6448C414.959 54.6448 415.631 55.2048 415.631 56.3248V56.6128L414.431 57.4288C414.399 57.4288 414.287 57.4448 414.095 57.4768C413.935 57.4768 413.615 57.4768 413.135 57.4768C412.111 57.5408 411.455 57.5728 411.167 57.5728ZM420.459 58.2928C419.883 58.1968 419.387 57.9888 418.971 57.6688C418.587 57.3488 418.363 56.9328 418.299 56.4208L418.827 55.6048C419.019 55.6048 419.323 55.6688 419.739 55.7968C420.219 55.8928 420.587 55.9408 420.843 55.9408C421.419 55.9408 421.931 55.6848 422.379 55.1728C422.859 54.6608 423.211 53.9888 423.435 53.1568C423.851 51.6208 424.059 50.2448 424.059 49.0288C424.059 46.9168 423.387 44.6928 422.043 42.3568L421.515 41.4448C420.907 40.3888 420.395 39.4448 419.979 38.6128C419.563 37.7808 419.211 36.8848 418.923 35.9248C418.539 34.6768 418.347 33.4288 418.347 32.1808C418.347 30.7728 418.667 29.3008 419.307 27.7648C419.627 27.0288 420.075 26.4368 420.651 25.9888C421.259 25.5088 421.931 25.2688 422.667 25.2688C423.243 25.2688 423.771 25.4608 424.251 25.8448C424.763 26.1968 425.019 26.6288 425.019 27.1408C425.019 27.4288 424.907 27.6528 424.683 27.8128C424.459 27.9728 424.187 28.0528 423.867 28.0528C423.515 28.0528 423.179 27.9568 422.859 27.7648C422.155 27.7968 421.595 28.4208 421.179 29.6368C420.827 30.7568 420.651 31.6848 420.651 32.4208C420.651 33.3488 420.795 34.2928 421.083 35.2528C421.371 36.1808 421.739 37.0288 422.187 37.7968L423.243 39.7168L424.923 42.8848C425.371 43.7808 425.723 44.8208 425.979 46.0048C426.267 47.1888 426.411 48.3888 426.411 49.6048C426.411 51.5568 425.963 53.4128 425.067 55.1728C424.619 56.0688 423.979 56.7888 423.147 57.3328C422.347 57.8768 421.451 58.1488 420.459 58.1488V58.2928ZM440.91 58.0528C440.174 58.0528 439.63 57.9408 439.278 57.7168C438.926 57.4928 438.75 57.0768 438.75 56.4688C438.75 55.5088 438.59 53.8768 438.27 51.5728L438.078 50.5648L433.326 49.8448C433.134 50.5808 432.862 52.0688 432.51 54.3088C432.318 55.8768 432.014 56.9168 431.598 57.4288C431.374 57.7168 431.054 57.8608 430.638 57.8608C430.254 57.8608 429.902 57.7488 429.582 57.5248C429.262 57.2688 429.102 56.9648 429.102 56.6128L429.198 56.3728L429.246 56.1808C431.358 47.9568 432.958 39.8448 434.046 31.8448C434.046 31.7168 434.062 31.5088 434.094 31.2208C434.126 30.9008 434.158 30.4528 434.19 29.8768C434.286 28.6928 434.382 27.7488 434.478 27.0448C434.606 26.3408 434.798 25.8128 435.054 25.4608H436.686C437.134 25.4608 437.518 25.5728 437.838 25.7968C438.158 25.9888 438.318 26.2768 438.318 26.6608C438.318 29.0928 438.654 32.7088 439.326 37.5088C439.966 42.4368 440.286 45.8928 440.286 47.8768C440.286 48.0688 440.366 48.5648 440.526 49.3648C440.686 50.1008 440.766 50.5808 440.766 50.8048C440.766 51.0288 440.926 51.9888 441.246 53.6848C441.534 55.2208 441.678 56.2128 441.678 56.6608V56.7088C441.678 57.4128 441.422 57.8608 440.91 58.0528ZM437.742 48.8368C437.646 48.3568 437.598 47.7648 437.598 47.0608C437.598 44.1808 437.342 40.5008 436.83 36.0208L436.35 31.0288C434.974 38.5488 434.03 44.2288 433.518 48.0688C433.998 48.3888 435.406 48.6448 437.742 48.8368ZM458.902 57.7648C458.518 57.7648 458.23 57.6688 458.038 57.4768C457.846 57.2528 457.702 56.8848 457.606 56.3728L457.318 55.4608V55.3648V55.2208C457.318 54.1648 456.214 50.5648 454.006 44.4208C451.83 38.2768 450.118 33.7328 448.87 30.7888V54.9328L449.062 55.2688C449.094 55.3328 449.158 55.4448 449.254 55.6048C449.35 55.7648 449.398 55.9248 449.398 56.0848C449.398 56.5008 449.254 56.8528 448.966 57.1408C448.678 57.4288 448.326 57.5728 447.91 57.5728C446.886 57.5728 446.374 56.5968 446.374 54.6448L446.326 46.4368C446.294 43.9728 446.278 41.2208 446.278 38.1808C446.278 37.1568 446.326 35.6688 446.422 33.7168C446.518 31.7008 446.566 30.2128 446.566 29.2528C446.566 27.7488 447.142 26.5648 448.294 25.7008V25.9888C448.486 25.9248 448.614 25.8928 448.678 25.8928C449.414 25.8928 450.342 27.1728 451.462 29.7328C452.358 31.7808 453.158 33.9408 453.862 36.2128C454.598 38.4848 455.558 41.7168 456.742 45.9088L457.222 47.6368C457.958 50.2288 458.518 52.0848 458.902 53.2048C459.542 46.3248 459.862 38.1968 459.862 28.8208V28.1968C459.83 28.0048 459.814 27.7968 459.814 27.5728C459.814 26.6128 460.198 26.1328 460.966 26.1328C461.414 26.1328 461.75 26.3088 461.974 26.6608C462.23 27.0128 462.358 27.4608 462.358 28.0048V31.6048C462.294 36.5328 462.102 41.8768 461.782 47.6368C461.462 53.3968 461.078 56.6448 460.63 57.3808C459.702 57.6368 459.126 57.7648 458.902 57.7648ZM479.74 58.0048C478.268 58.0048 477.532 57.6048 477.532 56.8048L477.628 50.9008L477.724 44.9968C477.724 42.8528 477.676 39.6048 477.58 35.2528C477.484 30.9328 477.436 27.6848 477.436 25.5088V25.2208C477.436 24.3888 477.516 23.6208 477.676 22.9168C477.868 22.0528 478.38 21.6208 479.212 21.6208C481.452 21.6208 483.228 22.3408 484.54 23.7808C485.852 25.2208 486.508 27.1248 486.508 29.4928C486.508 30.9328 486.124 32.4368 485.356 34.0048C484.588 35.5728 483.676 36.7408 482.62 37.5088C484.476 38.7568 485.836 40.3728 486.7 42.3568C487.596 44.3088 488.044 46.4688 488.044 48.8368C488.044 49.9568 487.66 51.3488 486.892 53.0128C485.964 54.9968 484.7 56.4208 483.1 57.2848C482.14 57.7648 481.084 58.0048 479.932 58.0048H479.74ZM480.22 36.7888C481.052 36.5968 481.756 35.9088 482.332 34.7248C482.812 33.8288 483.26 32.7408 483.676 31.4608C483.772 31.1088 483.932 30.6608 484.156 30.1168V28.4368C484.156 27.4768 483.804 26.5488 483.1 25.6528C482.396 24.7568 481.596 24.3088 480.7 24.3088C480.252 24.3088 480.028 24.8048 480.028 25.7968C480.028 27.9088 480.06 29.7968 480.124 31.4608L480.22 36.7888ZM480.412 55.5088C481.98 55.2848 483.228 54.5648 484.156 53.3488C485.084 52.1328 485.548 50.6768 485.548 48.9808C485.548 47.5088 485.42 46.1648 485.164 44.9488C484.94 43.7008 484.636 42.7568 484.252 42.1168C483.9 41.5088 483.548 40.9968 483.196 40.5808C482.844 40.1648 482.54 39.8928 482.284 39.7648L481.9 39.6208H480.172C480.332 43.3008 480.412 48.5968 480.412 55.5088ZM502.082 58.0528C501.346 58.0528 500.802 57.9408 500.45 57.7168C500.098 57.4928 499.922 57.0768 499.922 56.4688C499.922 55.5088 499.762 53.8768 499.442 51.5728L499.25 50.5648L494.498 49.8448C494.306 50.5808 494.034 52.0688 493.682 54.3088C493.49 55.8768 493.186 56.9168 492.77 57.4288C492.546 57.7168 492.226 57.8608 491.81 57.8608C491.426 57.8608 491.074 57.7488 490.754 57.5248C490.434 57.2688 490.274 56.9648 490.274 56.6128L490.37 56.3728L490.418 56.1808C492.53 47.9568 494.13 39.8448 495.218 31.8448C495.218 31.7168 495.234 31.5088 495.266 31.2208C495.298 30.9008 495.33 30.4528 495.362 29.8768C495.458 28.6928 495.554 27.7488 495.65 27.0448C495.778 26.3408 495.97 25.8128 496.226 25.4608H497.858C498.306 25.4608 498.69 25.5728 499.01 25.7968C499.33 25.9888 499.49 26.2768 499.49 26.6608C499.49 29.0928 499.826 32.7088 500.498 37.5088C501.138 42.4368 501.458 45.8928 501.458 47.8768C501.458 48.0688 501.538 48.5648 501.698 49.3648C501.858 50.1008 501.938 50.5808 501.938 50.8048C501.938 51.0288 502.098 51.9888 502.418 53.6848C502.706 55.2208 502.85 56.2128 502.85 56.6608V56.7088C502.85 57.4128 502.594 57.8608 502.082 58.0528ZM498.914 48.8368C498.818 48.3568 498.77 47.7648 498.77 47.0608C498.77 44.1808 498.514 40.5008 498.002 36.0208L497.522 31.0288C496.146 38.5488 495.202 44.2288 494.69 48.0688C495.17 48.3888 496.578 48.6448 498.914 48.8368ZM507.834 58.2928C507.258 58.1968 506.762 57.9888 506.346 57.6688C505.962 57.3488 505.738 56.9328 505.674 56.4208L506.202 55.6048C506.394 55.6048 506.698 55.6688 507.114 55.7968C507.594 55.8928 507.962 55.9408 508.218 55.9408C508.794 55.9408 509.306 55.6848 509.754 55.1728C510.234 54.6608 510.586 53.9888 510.81 53.1568C511.226 51.6208 511.434 50.2448 511.434 49.0288C511.434 46.9168 510.762 44.6928 509.418 42.3568L508.89 41.4448C508.282 40.3888 507.77 39.4448 507.354 38.6128C506.938 37.7808 506.586 36.8848 506.298 35.9248C505.914 34.6768 505.722 33.4288 505.722 32.1808C505.722 30.7728 506.042 29.3008 506.682 27.7648C507.002 27.0288 507.45 26.4368 508.026 25.9888C508.634 25.5088 509.306 25.2688 510.042 25.2688C510.618 25.2688 511.146 25.4608 511.626 25.8448C512.138 26.1968 512.394 26.6288 512.394 27.1408C512.394 27.4288 512.282 27.6528 512.058 27.8128C511.834 27.9728 511.562 28.0528 511.242 28.0528C510.89 28.0528 510.554 27.9568 510.234 27.7648C509.53 27.7968 508.97 28.4208 508.554 29.6368C508.202 30.7568 508.026 31.6848 508.026 32.4208C508.026 33.3488 508.17 34.2928 508.458 35.2528C508.746 36.1808 509.114 37.0288 509.562 37.7968L510.618 39.7168L512.298 42.8848C512.746 43.7808 513.098 44.8208 513.354 46.0048C513.642 47.1888 513.786 48.3888 513.786 49.6048C513.786 51.5568 513.338 53.4128 512.442 55.1728C511.994 56.0688 511.354 56.7888 510.522 57.3328C509.722 57.8768 508.826 58.1488 507.834 58.1488V58.2928ZM530.157 58.4368C529.421 58.4368 528.637 57.6368 527.805 56.0368C526.557 53.6368 525.325 49.6848 524.109 44.1808C523.757 42.6768 523.469 41.2848 523.245 40.0048C522.093 42.3088 521.517 45.0928 521.517 48.3568V57.2368C521.517 57.9728 521.197 58.3408 520.557 58.3408C520.077 58.3408 519.677 58.1968 519.357 57.9088C519.069 57.6528 518.925 57.2848 518.925 56.8048V42.2608C518.925 40.8528 519.085 38.2608 519.405 34.4848C519.725 31.1888 519.885 28.5968 519.885 26.7088C520.141 26.1008 520.605 25.7968 521.277 25.7968C521.693 25.7968 522.045 25.9408 522.333 26.2288C522.621 26.5168 522.765 26.8688 522.765 27.2848V27.4288C522.349 28.1328 522.141 31.0448 522.141 36.1648V37.8928L523.917 34.3888C525.005 32.1168 526.029 30.1648 526.989 28.5328C527.885 26.9328 528.541 26.1328 528.957 26.1328C529.469 26.1328 529.901 26.2448 530.253 26.4688C530.637 26.6928 530.829 27.0128 530.829 27.4288L529.677 29.3488C527.277 33.2208 525.933 35.4608 525.645 36.0688C525.645 36.6128 525.629 37.0928 525.597 37.5088L525.549 38.9488C525.549 40.3248 526.093 42.9008 527.181 46.6768C528.301 50.4208 529.229 52.9008 529.965 54.1168L530.589 54.9808C531.197 55.8128 531.501 56.5488 531.501 57.1888C531.501 57.5408 531.357 57.8288 531.069 58.0528C530.813 58.3088 530.509 58.4368 530.157 58.4368ZM537.818 58.2448C537.402 58.2448 537.018 58.1008 536.666 57.8128C536.346 57.5248 536.17 57.1728 536.138 56.7568V55.5088V54.5488C536.106 54.2608 536.09 53.9248 536.09 53.5408C536.09 52.8688 536.042 51.8448 535.946 50.4688L535.85 47.3968C535.85 45.8288 535.898 43.4928 535.994 40.3888C536.122 37.6048 536.186 35.2688 536.186 33.3808C536.186 32.9328 536.138 32.2608 536.042 31.3648C535.946 30.4368 535.898 29.7648 535.898 29.3488C535.898 27.0768 536.57 25.9408 537.914 25.9408C538.97 25.9408 540.186 26.1488 541.562 26.5648C542.97 26.9808 543.674 27.4768 543.674 28.0528C543.674 28.3728 543.53 28.6768 543.242 28.9648C542.986 29.2208 542.666 29.4288 542.282 29.5888C540.938 29.1088 539.722 28.7888 538.634 28.6288C538.666 29.1088 538.682 29.7968 538.682 30.6928C538.682 31.9728 538.666 33.1248 538.634 34.1488C538.538 35.6848 538.49 36.8368 538.49 37.6048L538.634 38.3728L539.402 38.3248C539.658 38.2928 539.978 38.2768 540.362 38.2768C541.898 38.2768 542.666 38.7248 542.666 39.6208C542.666 39.9728 542.522 40.2768 542.234 40.5328C541.946 40.7568 541.578 40.8688 541.13 40.8688C540.554 40.8688 540.106 40.8368 539.786 40.7728H538.586C538.65 41.6048 538.682 42.8208 538.682 44.4208C538.682 46.0208 538.666 47.4608 538.634 48.7408C538.538 50.6928 538.49 52.1488 538.49 53.1088C538.49 54.9008 538.522 55.7968 538.586 55.7968L540.17 55.7488C540.714 55.7168 541.37 55.7008 542.138 55.7008C543.354 55.7008 543.962 56.0848 543.962 56.8528C543.962 57.3008 543.754 57.6368 543.338 57.8608C542.954 58.1168 542.474 58.2448 541.898 58.2448H537.818ZM551.939 56.8528L551.891 54.9808C551.859 54.4368 551.843 53.8288 551.843 53.1568L551.891 51.5248C551.795 51.1728 551.555 47.6688 551.171 41.0128C550.787 34.3568 550.563 30.0848 550.499 28.1968C548.643 28.1328 547.459 27.9408 546.947 27.6208C546.595 27.3648 546.419 27.0768 546.419 26.7568C546.419 26.5008 546.579 26.2768 546.899 26.0848C547.251 25.8608 547.603 25.7488 547.955 25.7488C548.851 25.7488 549.939 25.8128 551.219 25.9408C552.435 26.1008 553.523 26.1808 554.483 26.1808H554.867H555.251C556.243 26.1808 556.739 26.5648 556.739 27.3328C556.739 27.7168 556.579 28.0368 556.259 28.2928C555.939 28.5168 555.571 28.6288 555.155 28.6288C554.867 28.6288 554.451 28.5808 553.907 28.4848L552.947 28.2928L552.899 28.5328L552.851 28.7728C552.851 31.6208 553.123 36.1648 553.667 42.4048C554.179 48.2608 554.435 52.8048 554.435 56.0368C554.435 56.4208 554.259 56.7568 553.907 57.0448C553.587 57.3328 553.219 57.4768 552.803 57.4768L551.939 56.8528Z" fill="#E4E0E0"/>
</svg>
