<svg width="21" height="20" viewBox="0 0 21 20" fill="none" xmlns="http://www.w3.org/2000/svg">
<path fill-rule="evenodd" clip-rule="evenodd" d="M2.92084 4.39725C2.87651 4.10217 2.85898 3.7971 3.00089 3.53461C3.17468 3.21316 3.45964 2.84854 3.61031 2.69786C3.29011 2.69786 3.83673 2.47145 3.61031 2.69786L16.5373 1.72433C17.273 1.72435 17.5671 1.79729 17.9365 1.98197C18.7413 2.38441 18.3389 3.63382 18.3389 3.95402L17.9365 5.09343C17.7447 5.74877 17.5749 6.06686 17.273 6.36868L13.5011 10.1406C13.1261 10.5156 12.9153 11.0243 12.9153 11.5548V16.7018C12.9154 16.8528 12.8768 17.0012 12.8033 17.133C12.7298 17.2649 12.6239 17.3757 12.4955 17.4551C12.3671 17.5344 12.2205 17.5797 12.0698 17.5864C11.919 17.5932 11.769 17.5613 11.634 17.4938L8.64219 15.9984C8.47508 15.9148 8.33453 15.7864 8.23629 15.6274C8.13806 15.4685 8.08602 15.2853 8.08602 15.0985V11.969C8.08602 11.1733 7.76995 10.4103 7.20734 9.84766L3.72836 6.36868C3.42644 6.06686 3.04613 5.65748 3.04604 5.23057L2.92084 4.39725Z" fill="#35394C"/>
</svg>
