<svg width="24" height="24" viewBox="0 0 24 24" fill="none" xmlns="http://www.w3.org/2000/svg">
<path d="M11.39 2.28696C10.438 3.11292 9.71844 4.1734 9.30272 5.36322C8.88699 6.55303 8.78952 7.83086 9.01997 9.06996C7.49797 8.19396 5.81997 7.92996 3.89197 8.08996C3.76626 8.10079 3.64392 8.13628 3.53195 8.19442C3.41998 8.25256 3.32056 8.3322 3.23939 8.42879C3.15821 8.52538 3.09688 8.63703 3.05888 8.75734C3.02089 8.87765 3.00699 9.00427 3.01797 9.12996C3.17497 10.856 3.96997 12.568 5.07797 13.906C4.66035 13.9026 4.24301 13.9283 3.82897 13.983C3.59081 14.0147 3.37386 14.1364 3.22266 14.3232C3.07146 14.5099 2.9975 14.7474 3.01597 14.987C3.16283 16.8949 4.02439 18.6771 5.42839 19.9773C6.8324 21.2774 8.6754 21.9998 10.589 22H13.41C15.3237 22.0001 17.1669 21.2778 18.5712 19.9776C19.9754 18.6774 20.8371 16.8951 20.984 14.987C21.0024 14.7473 20.9283 14.5096 20.7769 14.3229C20.6255 14.1361 20.4083 14.0145 20.17 13.983C19.7609 13.929 19.3486 13.9033 18.936 13.906C20.044 12.567 20.839 10.856 20.996 9.12996C21.0069 9.0042 20.993 8.8775 20.9549 8.75712C20.9169 8.63675 20.8555 8.52507 20.7742 8.42846C20.6929 8.33186 20.5934 8.25224 20.4813 8.19415C20.3692 8.13607 20.2468 8.10066 20.121 8.08996C18.193 7.92996 16.506 8.19396 14.979 9.06996C15.2095 7.83094 15.1122 6.55318 14.6967 5.36337C14.2811 4.17355 13.5618 3.11303 12.61 2.28696C12.4408 2.13993 12.2241 2.05896 12 2.05896C11.7758 2.05896 11.5592 2.13993 11.39 2.28696ZM12 11.727C10.973 10.6579 10.3994 9.23292 10.3994 7.75046C10.3994 6.26801 10.973 4.84305 12 3.77396C13.0267 4.843 13.6 6.26775 13.6 7.74996C13.6 9.23218 13.0267 10.6569 12 11.726M12 17.333C10.9107 15.9471 9.43848 14.9116 7.76597 14.355C7.73356 14.3244 7.69915 14.296 7.66297 14.27C6.19297 13.27 4.94297 11.426 4.58997 9.54996C6.45897 9.48796 7.92597 9.93696 9.26497 11.071C10.29 11.94 10.745 12.999 11.082 13.786C11.17 13.99 11.249 14.176 11.329 14.334C11.3913 14.4584 11.4871 14.563 11.6055 14.6361C11.7239 14.7092 11.8603 14.7479 11.9995 14.7479C12.1386 14.7479 12.275 14.7092 12.3935 14.6361C12.5119 14.563 12.6076 14.4584 12.67 14.334C12.7486 14.174 12.831 13.9913 12.917 13.786C13.255 12.999 13.709 11.939 14.734 11.071C16.073 9.93796 17.551 9.48796 19.424 9.54996C19.07 11.426 17.821 13.27 16.351 14.27C16.3174 14.2936 16.2854 14.3193 16.255 14.347C14.5737 14.9024 13.0936 15.9404 12 17.333ZM12.643 19.04C14.036 16.71 16.645 15.26 19.422 15.417C19.1825 16.8382 18.4472 18.1286 17.3465 19.0591C16.2459 19.9897 14.8512 20.5001 13.41 20.5H10.59C7.58997 20.5 5.06597 18.324 4.57897 15.418C7.35497 15.26 9.96397 16.709 11.357 19.04C11.4236 19.1512 11.5178 19.2433 11.6306 19.3072C11.7434 19.3711 11.8708 19.4047 12.0005 19.4047C12.1301 19.4047 12.2575 19.3711 12.3703 19.3072C12.4831 19.2433 12.5774 19.1512 12.644 19.04" fill="white"/>
</svg>
