<svg id="Layer_1" data-name="Layer 1" xmlns="http://www.w3.org/2000/svg" viewBox="0 0 504.02 133.15"><defs><style>.cls-1{fill:#8ec541;}.cls-2{fill:#683f18;}.cls-3{fill:#603913;}.cls-4{fill:#fff;}.cls-5{fill:none;stroke:#fff;stroke-miterlimit:10;stroke-width:1.5px;}</style></defs><title>kisanbasket l0g0_16_option_5</title><path class="cls-1" d="M262.93,399.63l-23.69-30.49v30.49h-21V330.08h21v30l23.47-30,24,.32-27.76,33.74,29.42,35.49Z" transform="translate(-53.99 -329.43)"/><path class="cls-1" d="M450.27,388.28H423.48l-4.08,11.35H397.32l27.55-69.55h24.22l27.43,69.55H454.34ZM445,373.49,436.87,351l-8,22.5Z" transform="translate(-53.99 -329.43)"/><path class="cls-1" d="M556.15,399.63h-21l-28-38.87v38.87l-21,.89V331l15.42-.89a10.59,10.59,0,0,1,8.65,4.3l24.92,35.05V330.07h21v69.56Z" transform="translate(-53.99 -329.43)"/><path class="cls-1" d="M322.62,329.74v69.55h-21V329.74Z" transform="translate(-53.99 -329.43)"/><path class="cls-1" d="M342.87,395q-8.46-5.78-9.1-16.53h22.4a7.4,7.4,0,0,0,2.36,5.33,8,8,0,0,0,5.25,1.68,8.07,8.07,0,0,0,4.77-1.33,4.29,4.29,0,0,0,1.88-3.69,5.2,5.2,0,0,0-3.11-4.74A57.26,57.26,0,0,0,357.25,372a97.09,97.09,0,0,1-12-4.39,22.54,22.54,0,0,1-7.92-6.21q-3.37-4.1-3.38-10.71a18.41,18.41,0,0,1,3.64-11.49,22.35,22.35,0,0,1,10.07-7.25,40.6,40.6,0,0,1,14.58-2.47q13.19,0,21.06,5.67T391.75,351H368.93a6,6,0,0,0-2.09-4.73,7.9,7.9,0,0,0-5.09-1.58,5.77,5.77,0,0,0-3.87,1.28,4.53,4.53,0,0,0-1.5,3.65,4.36,4.36,0,0,0,1.66,3.41,15.75,15.75,0,0,0,4.13,2.47c1.65.68,4.07,1.56,7.29,2.61a94.39,94.39,0,0,1,11.84,4.49,23.72,23.72,0,0,1,8,6.21A15.12,15.12,0,0,1,392.72,379a19.3,19.3,0,0,1-3.38,11.15,22.71,22.71,0,0,1-9.75,7.79,36.49,36.49,0,0,1-15.06,2.86Q351.35,400.75,342.87,395Z" transform="translate(-53.99 -329.43)"/><path class="cls-2" d="M223.73,433.38a24.89,24.89,0,0,0-.28-5.64c-.35-1.08-1.49-1.76-3.42-2.05l-1.19-.17c-.4-.23-.57-.71-.5-1.43a1.18,1.18,0,0,1,.68-1.18q5.86-.44,19-.52a47.45,47.45,0,0,1,13.35,1.53,9.79,9.79,0,0,1,4.85,2.91,7.38,7.38,0,0,1,1.62,4.83,6.19,6.19,0,0,1-2.22,5,14.29,14.29,0,0,1-6.18,2.83c-.53.32-.48.56.14.74a18.65,18.65,0,0,1,8,3c2.3,1.57,3.49,4,3.55,7.3a8.67,8.67,0,0,1-1.86,5.62,11.71,11.71,0,0,1-4.88,3.48q-6.08,2.13-15.41,2c-1.69,0-3.38-.06-5.08-.17s-3.17-.17-4.54-.17q-5.84,0-11.16.27a1.44,1.44,0,0,1-.49-1.25,1.14,1.14,0,0,1,.39-1.28l1.95-.26c1.69-.12,2.74-.68,3.19-1.7a21.06,21.06,0,0,0,.52-5.8V433.38Zm10.57,4.27c-.07.78.15,1.24.66,1.35a8.88,8.88,0,0,0,3.33.27,10.81,10.81,0,0,0,5.75-1.36c1.62-.92,2.45-2.75,2.52-5.45a6.08,6.08,0,0,0-2.43-5.07,9.84,9.84,0,0,0-5.56-1.62,8.82,8.82,0,0,0-3.61.44,1.71,1.71,0,0,0-.66,1.7Zm0,12.73c-.07,2.72.29,4.7,1,5.94s2.75,1.95,5.82,1.95a9.88,9.88,0,0,0,5.81-1.86,6.29,6.29,0,0,0,2.64-5.34c-.06-3.07-1.1-5.3-3.12-6.73a15,15,0,0,0-8.07-2c-1.89,0-3.05,0-3.46.08s-.74.52-.67,1.22v6.77Z" transform="translate(-53.99 -329.43)"/><path class="cls-2" d="M293.29,448.57a5.21,5.21,0,0,0-1.77.18,3.4,3.4,0,0,0-1.06,1.7l-1.77,4.28c-.61,1.52-.82,2.5-.62,3,.12.62.7,1,1.71,1.09l2.42.26a1.1,1.1,0,0,1,.44,1.28,1.93,1.93,0,0,1-.84,1.25c-3.14-.17-5.94-.26-8.42-.26a65,65,0,0,0-6.75.26,1.44,1.44,0,0,1-.73-1.33,1,1,0,0,1,.44-1.2l1.72-.26a5.48,5.48,0,0,0,3.73-1.79,7.49,7.49,0,0,0,1.48-2.35,38.29,38.29,0,0,0,1.77-3.83l9.52-19.95q1.72-3.48,1.34-4.92a13.4,13.4,0,0,0,4-2,11.57,11.57,0,0,0,2.43-2.14,2.64,2.64,0,0,1,1-.17c.38,0,.77.38,1.15,1.13l4.64,10.54,9.37,21.13a9.37,9.37,0,0,0,2.34,3.48,6.31,6.31,0,0,0,3.55,1.09l1,.09a1.36,1.36,0,0,1,.6,1.28,1.33,1.33,0,0,1-.93,1.25c-2.86-.18-6.19-.26-10-.26-3.52,0-6.82.08-9.87.26a1.52,1.52,0,0,1-.3-2.53l1.68-.35a3.71,3.71,0,0,0,1.82-.74c.35-.35.31-.92-.09-1.71l-2.26-5.81c-.32-1-.64-1.53-1-1.7a11.62,11.62,0,0,0-2.59-.18Zm7-3.38a6.89,6.89,0,0,0,2.88-.35q.4-.34-.39-1.71-2.86-6.5-4.65-10.33-2,3.75-4.79,10.77c-.33.67-.43,1.09-.3,1.27s.82.35,2.07.35Z" transform="translate(-53.99 -329.43)"/><path class="cls-2" d="M360.13,421.43a39.68,39.68,0,0,1,6.17.43,40.83,40.83,0,0,1,4.35,1.14,32.31,32.31,0,0,1,1.63,9.12,1.91,1.91,0,0,1-1.25.65,2.38,2.38,0,0,1-1.49-.3q-2.84-7.65-10-7.65a7.59,7.59,0,0,0-4.89,1.43,4.92,4.92,0,0,0,.57,8.12,20,20,0,0,0,5.41,2.83,29.05,29.05,0,0,1,9.11,4.82,10.77,10.77,0,0,1,3.94,8.69,9.8,9.8,0,0,1-5.22,8.91A24.05,24.05,0,0,1,356,462.57q-8.72-.09-12.93-3.22a18.61,18.61,0,0,1-1.48-4.64,29.65,29.65,0,0,1-.29-5.39,2.39,2.39,0,0,1,1.39-.75,1.31,1.31,0,0,1,1.39.52,15.85,15.85,0,0,0,4.6,7.05,11.41,11.41,0,0,0,8.15,3,8,8,0,0,0,5-1.53,4.57,4.57,0,0,0,1.88-3.83,6.53,6.53,0,0,0-2.25-5.18,18.89,18.89,0,0,0-5.89-3.3,24.86,24.86,0,0,1-8.43-4.7,9.87,9.87,0,0,1,1-16.31Q352.72,421.43,360.13,421.43Z" transform="translate(-53.99 -329.43)"/><path class="cls-2" d="M409.59,436.67a11,11,0,0,0,.19,2.24c.07.73.33,1.1.79,1.1a5.84,5.84,0,0,0,3.17-.84,16.17,16.17,0,0,0,2.92-2.41l7.22-7.11q.58-.61,1.59-1.89a4.9,4.9,0,0,0,1-1.71c0-.41-.44-.7-1.33-.88l-1.19-.3a1.53,1.53,0,0,1,.2-2.48c2.77.17,5.6.27,8.51.27s5.8-.09,8.5-.27a1.06,1.06,0,0,1,.79,1.05,1.92,1.92,0,0,1-.59,1.43,29.93,29.93,0,0,0-4.91,1.09q-3.84,1.35-9.94,7.16l-3.08,2.75c-.9.9-1.32,1.53-1.25,1.88q-.34.09,2.64,4.15,3,3.84,6.39,8a66.94,66.94,0,0,0,5.81,6.68,11.25,11.25,0,0,0,5.51,2.27l1.35.18a1.92,1.92,0,0,1,.39,1.2,1.54,1.54,0,0,1-.59,1.32c-2.69-.18-6.26-.26-10.72-.26-3.68,0-7.4.08-11.15.26a1.42,1.42,0,0,1-.59-1.32,1.33,1.33,0,0,1,.49-1.2l1.47-.26c1.63-.38,2.2-.92,1.67-1.62-1-1.36-2.33-3.06-4-5.11l-4-4.84c-.76-1.05-1.56-2.05-2.42-3a4.43,4.43,0,0,0-2.94-1.52c-.92,0-1.45.18-1.59.52a5.37,5.37,0,0,0-.3,2.71v5.36q-.1,4.27.72,5.81c.52,1,1.69,1.62,3.52,1.79l2.12.17a1.5,1.5,0,0,1,.59,1.28,1.52,1.52,0,0,1-.69,1.24q-5.42-.25-11.23-.26c-4.07,0-7.66.09-10.79.26a1.41,1.41,0,0,1-.49-1.25,1.14,1.14,0,0,1,.39-1.28l1.38-.17c1.75-.18,2.87-.78,3.38-1.79a21.09,21.09,0,0,0,.52-5.81v-18.6a22.39,22.39,0,0,0-.52-5.94c-.51-1-1.63-1.54-3.38-1.66l-1.67-.22a1.42,1.42,0,0,1-.49-1.34,1.08,1.08,0,0,1,.78-1.14c3.19.17,6.81.27,10.87.27q5.81,0,10.93-.27a1.08,1.08,0,0,1,.69,1.14,1.65,1.65,0,0,1-.6,1.34l-2.12.3c-1.68.06-2.79.59-3.31,1.58s-.69,3.08-.62,6v4Z" transform="translate(-53.99 -329.43)"/><path class="cls-2" d="M474.08,437.87q0,1,.39,1.26a4.56,4.56,0,0,0,1.87.35H480a19.87,19.87,0,0,0,5.28-.43,2.71,2.71,0,0,0,1.78-2.31l.62-2.14a2,2,0,0,1,1.43-.47,1.45,1.45,0,0,1,1.29.65q-.3,3.09-.3,6.48,0,3.57.3,6.7c-.2.29-.62.44-1.3.44a2,2,0,0,1-1.43-.27L487,446a2.86,2.86,0,0,0-1.78-2.43,24.63,24.63,0,0,0-5.27-.35h-3.65a6.13,6.13,0,0,0-1.87.17,2.37,2.37,0,0,0-.38,1.61v5.53a19.55,19.55,0,0,0,.28,3.56,5.8,5.8,0,0,0,.77,2.48,5.26,5.26,0,0,0,2.79.91,33.49,33.49,0,0,0,6.47.44c3.94,0,6.65-.54,8.16-1.61a6.82,6.82,0,0,0,2.16-2.05,15.45,15.45,0,0,0,1.58-2.91,3.07,3.07,0,0,1,1.44-.3,2.08,2.08,0,0,1,1.29.65c-.38,1.94-.84,3.85-1.39,5.71a37.31,37.31,0,0,1-1.53,4.18q-9-.18-16.71-.27H468.9q-5.56,0-12.26.27a1.41,1.41,0,0,1-.5-1.25,1.14,1.14,0,0,1,.4-1.28l3-.26c1.75-.12,2.88-.68,3.38-1.7a20.93,20.93,0,0,0,.53-5.81v-18.6a22.25,22.25,0,0,0-.52-5.93c-.51-1-1.63-1.55-3.38-1.67l-1.19-.22a1.24,1.24,0,0,1-.39-1.34c0-.59.16-1,.49-1.13,1.44.11,3.05.17,4.84.17s3.61.08,5.55.08h15.8c4.79,0,7.84-.08,9.15-.26a68.73,68.73,0,0,1,1.05,9.24,1.39,1.39,0,0,1-1.2.51,2.62,2.62,0,0,1-1.54-.26,25.87,25.87,0,0,0-1.78-3.73q-1.58-2.2-8.54-2.13H476.6c-1.11-.06-1.8.15-2.06.62a9.69,9.69,0,0,0-.47,3.91v7.34Z" transform="translate(-53.99 -329.43)"/><path class="cls-2" d="M530.28,428.51a7.23,7.23,0,0,0-.2-2.22A4.76,4.76,0,0,0,528,426H525a10.56,10.56,0,0,0-6.46,1.69,12.38,12.38,0,0,0-2.73,4.27,1.81,1.81,0,0,1-1.29.26,2,2,0,0,1-1.34-.6,72.91,72.91,0,0,0,2.63-10.53,1.46,1.46,0,0,1,1.15-.43,1.09,1.09,0,0,1,1,.43c.06,1.14,1.57,1.64,4.51,1.53h28.45a13,13,0,0,0,3.54-.35,1.79,1.79,0,0,0,1.44-1.35,2.93,2.93,0,0,1,1.29-.26.84.84,0,0,1,.86.43,52.36,52.36,0,0,0-.94,10.79,1.56,1.56,0,0,1-1.21.44,2.06,2.06,0,0,1-1.45-.27,6.94,6.94,0,0,0-2.15-4.61q-1.68-1.44-7-1.44h-2.53a2.49,2.49,0,0,0-1.48.26,3.88,3.88,0,0,0-.39,2.22V451.3c-.07,2.84.16,4.78.68,5.79s1.56,1.58,3.26,1.7l2.63.26a1.46,1.46,0,0,1,.64,1.28,1.52,1.52,0,0,1-.74,1.25q-6.18-.25-11.64-.26c-3.72,0-7.81.09-12.24.26a1.36,1.36,0,0,1-.54-1.25,1.1,1.1,0,0,1,.45-1.28l3-.26c1.76-.12,2.9-.68,3.45-1.7a22.78,22.78,0,0,0,.48-5.8V428.51Z" transform="translate(-53.99 -329.43)"/><rect class="cls-3" y="0.75" width="130.36" height="130.36"/><path class="cls-3" d="M184.42,385.89s-6.81,25-33.23,17.61" transform="translate(-53.99 -329.43)"/><path class="cls-4" d="M184.42,390.68a22.84,22.84,0,0,1-3.63,5.44,25.64,25.64,0,0,1-8.6,6.85,23.09,23.09,0,0,1-10.55,2.35l-1.34,0c-.45,0-.89-.1-1.33-.15l-2.65-.33c-1.74-.34-3.44-.87-5.15-1.29l0-.13c1.74.26,3.46.64,5.19.81l2.61.09c.43,0,.86.05,1.29,0l1.29-.15a21.28,21.28,0,0,0,9.63-3.05,23.09,23.09,0,0,0,7.19-6.86c1.85-2.73,5.16-8.23,5.94-11.25Z" transform="translate(-53.99 -329.43)"/><path class="cls-5" d="M131.16,411.56c.62,2.06,1.31,4.12,1.85,6.2.74,2.85,1.48,5.72,2,8.61a3.05,3.05,0,0,1-.89,2.41,4.18,4.18,0,0,1-2.84,1c-.42-.05-1.05-1.61-1-2.41,1.24-12-6.11-19.39-14-26.48a2.17,2.17,0,0,0-1.93-.19c-3.84,1.81-7.48,4.15-11.45,5.53-11,3.8-15.5,11.81-16,22.81,0,.29-.05.57-.09.91-3.14-2.34-4-7.08-2.35-12.55,1.34-4.44,3.94-8.13,7.55-11.72-4.46,1.38-9.38,8.74-10.87,15.59a4.93,4.93,0,0,1-2.66-6.84c3.11-5.46,7.58-9.74,12.42-13.61,2.85-2.27,6-4.14,9-6.2a1.72,1.72,0,0,0,.8-1c-9.87,4.48-18.32,10.66-24.09,20.45-2-2.75-4.2-5.34-5.6-8.75-1.89-4.61-1.13-8.9-.11-13.37.35-1.53.5-2.92-.86-4.39-.68-.73-.37-2.79.06-4.06,2.21-6.54,6.08-11.38,13.47-12.33.34,0,.68-.16,1.53-.37-2-1.76-3.7-3.23-5.37-4.73s-1.62-3.15.14-6.08c1-1.63,2.42-2.12,4.09-1.14,1.34.78,2.12.28,2.8-.83A38.62,38.62,0,0,1,89,354.5a12.82,12.82,0,0,1,2.85-2.89c2.18-1.44,3.93-1.25,5.6.75,2.39,2.84,4.54,5.88,7.23,9.4l-4.62-10.83c1.6-1.47,2.88-2.64,4.15-3.84,1.73-1.64,2.78-1.56,3.81.64,1.44,3.08,2.65,6.27,4.19,9.35-.62-3-1.3-6-1.84-9-.49-2.66-.11-2.91,2.64-3,3.41-.16,6.8-.59,10.2-.75a2.29,2.29,0,0,1,1.82,1.06,22,22,0,0,1,1.24,5.74c.17,4.17,0,8.36,0,12.55a9,9,0,0,0,.44,1.8c.37-.55.6-.75.65-1,1.11-5.27,2.23-10.54,3.28-15.82.34-1.77,1.45-2,2.87-1.66s2,1.27,1.44,2.87c-1.35,4.12-2.55,8.28-3.8,12.42a2,2,0,0,0,.18,1.71,22.62,22.62,0,0,0,1.09-2.21c1.06-2.85,2-5.74,3.12-8.57a17,17,0,0,1,1.82-3.42c1.49-2.17,3-2.45,5.23-1,1.59,1.05,3.16,2.14,4.66,3.31,2.78,2.19,3.09,4.25.95,7.09-3.62,4.81-7.48,9.45-10.95,14.37-2.22,3.15-3.86,6.7-5.87,10a3.84,3.84,0,0,1-2,1.47A58,58,0,0,0,116,391.53l.22.54,1.56-.72c3.37-1.57,6.79-3.07,10.11-4.74s6.16-.76,8.9,1.28c1.46,1.09,3,2.15,4.42,3.22l-.73,1.12c-7.18.27-13.93,1.76-19.37,6.89.66-.33,1.34-.65,2-1a33.82,33.82,0,0,1,16.55-4.5,6.19,6.19,0,0,1,5.72,8c-1-.83-2-1.64-3-2.45L139.59,397l-.7.69c1.61,1.8,3.11,3.74,4.88,5.37,1.14,1,1.73,1.87.68,3.28-4.52-.26-5.24-4.69-7.71-7.31a8.77,8.77,0,0,0,3.74,7.82c1.89,1.28,2,2.76,1.76,4.66a32.55,32.55,0,0,1-1,5.81c-1.26-1.76-2.53-3.51-3.76-5.28s-2.46-3.87-3.93-5.61c-.49-.57-1.74-.5-2.65-.72a6.48,6.48,0,0,0,.56,2.29c2.14,2.88,4.43,5.63,6.59,8.49a12.33,12.33,0,0,1,1.81,3.14c.86,2.33.11,3.58-2.52,4.48-1.15-4.55-2.09-9.23-5.44-12.78ZM86.47,372.63c9-2,17.46-1.3,25.73,3.35a4.21,4.21,0,0,0-3.26-4.11,17.93,17.93,0,0,0-3.78-.81c-5-.57-9.91-1.15-14.89-1.52C88.53,369.41,86.81,370,86.47,372.63Z" transform="translate(-53.99 -329.43)"/><path class="cls-5" d="M109.37,442.35c-4.58,4.61-10,4.83-15.55,3a8.37,8.37,0,0,1-3.9-3.21c-1-1.54-.55-3.29,1.19-4.3,1.56-.91,2.87-.46,4.07,1.27a8.42,8.42,0,0,0-1.37.07c-.57.15-1.12.39-1.68.59.38.51.71,1.39,1.16,1.46a7.34,7.34,0,0,0,3.3-.19,13,13,0,0,0,3.13-1.85c3.75-2.68,5.84-2.73,9.49-.13,4.34-2.72,5.61-2.62,10.05.38a19.13,19.13,0,0,0,4.07,2,2.73,2.73,0,0,0,2-.17c.51-.28.8-1,1.19-1.5a17.81,17.81,0,0,0-1.71-.54,5.79,5.79,0,0,0-1.33.08c.84-1.59,2-2.36,3.22-1.69a4.8,4.8,0,0,1,2.33,2.91c.32,2.23-1.36,3.59-3.21,4.52C122,447,113.39,447.39,109.37,442.35Z" transform="translate(-53.99 -329.43)"/><path class="cls-5" d="M86.47,372.63c.34-2.67,2.06-3.22,3.8-3.09,5,.37,9.94.95,14.89,1.52a17.93,17.93,0,0,1,3.78.81A4.21,4.21,0,0,1,112.2,376C103.93,371.33,95.45,370.59,86.47,372.63Z" transform="translate(-53.99 -329.43)"/></svg>