<svg width="34" height="34" viewBox="0 0 34 34" fill="none" xmlns="http://www.w3.org/2000/svg">
<path d="M17 16.2918C16.0607 16.2918 15.1598 15.9187 14.4956 15.2545C13.8315 14.5903 13.4583 13.6895 13.4583 12.7502C13.4583 11.8109 13.8315 10.91 14.4956 10.2458C15.1598 9.58164 16.0607 9.2085 17 9.2085C17.9393 9.2085 18.8401 9.58164 19.5043 10.2458C20.1685 10.91 20.5416 11.8109 20.5416 12.7502C20.5416 13.2153 20.45 13.6758 20.2721 14.1055C20.0941 14.5352 19.8332 14.9256 19.5043 15.2545C19.1754 15.5834 18.785 15.8443 18.3553 16.0222C17.9256 16.2002 17.4651 16.2918 17 16.2918ZM17 2.8335C14.3699 2.8335 11.8476 3.87828 9.98784 5.73802C8.1281 7.59776 7.08331 10.1201 7.08331 12.7502C7.08331 20.1877 17 31.1668 17 31.1668C17 31.1668 26.9166 20.1877 26.9166 12.7502C26.9166 10.1201 25.8719 7.59776 24.0121 5.73802C22.1524 3.87828 19.63 2.8335 17 2.8335Z" fill="#439CB0"/>
</svg>
