<svg width="38" height="28" viewBox="0 0 38 28" fill="none" xmlns="http://www.w3.org/2000/svg">
<path d="M23.2208 0.936544L36.7524 11.5652C36.8997 11.6811 37.0189 11.8289 37.1008 11.9975C37.1827 12.1661 37.2252 12.3512 37.2252 12.5386C37.2252 12.7261 37.1827 12.9111 37.1008 13.0797C37.0189 13.2483 36.8997 13.3962 36.7524 13.5121L23.2208 24.1432C23.0233 24.2984 22.7832 24.3899 22.5325 24.4055C22.2817 24.4211 22.0322 24.3601 21.8169 24.2306C21.6017 24.1011 21.4309 23.9091 21.3273 23.6803C21.2237 23.4514 21.1921 23.1965 21.2367 22.9493L22.1161 18.1068C9.69164 15.1246 4.50984 21.8074 2.51341 26.1198C2.22113 26.7489 0.992561 26.6276 0.928162 25.939C-0.669476 8.10238 11.0391 5.51892 22.1557 7.19582L21.2367 2.12796C21.192 1.88096 21.2234 1.6262 21.3267 1.39743C21.43 1.16866 21.6004 0.976691 21.8153 0.846952C22.0302 0.717213 22.2794 0.655834 22.53 0.670949C22.7805 0.686064 23.0206 0.77696 23.2183 0.931591" fill="#504D4D"/>
<path d="M23.2208 0.936544L36.7524 11.5652C36.8997 11.6811 37.0189 11.8289 37.1008 11.9975C37.1827 12.1661 37.2252 12.3512 37.2252 12.5386C37.2252 12.7261 37.1827 12.9111 37.1008 13.0797C37.0189 13.2483 36.8997 13.3962 36.7524 13.5121L23.2208 24.1432C23.0233 24.2984 22.7832 24.3899 22.5325 24.4055C22.2817 24.4211 22.0322 24.3601 21.8169 24.2306C21.6017 24.1011 21.4309 23.9091 21.3273 23.6803C21.2237 23.4514 21.1921 23.1965 21.2367 22.9493L22.1161 18.1068C9.69164 15.1246 4.50984 21.8074 2.51341 26.1198C2.22113 26.7489 0.992561 26.6276 0.928161 25.939C-0.669477 8.10238 11.0391 5.51892 22.1557 7.19582L21.2367 2.12796C21.192 1.88097 21.2234 1.6262 21.3267 1.39743C21.43 1.16866 21.6004 0.976691 21.8153 0.846952C22.0302 0.717213 22.2794 0.655834 22.53 0.670949C22.7805 0.686064 23.0206 0.77696 23.2183 0.931591" stroke="black" stroke-linecap="round" stroke-linejoin="round"/>
</svg>
