<svg width="1351" height="100" viewBox="0 0 1351 100" fill="none" xmlns="http://www.w3.org/2000/svg">
<path d="M1350.62 59.0433C1350.61 59.3766 1350.61 59.7099 1350.6 60.0432C1327.75 59.7039 1304.81 59.0063 1282.09 58.1068C1195.82 53.0437 1107.33 53.2411 1024.72 25.0066C967.94 -1.22053 903.032 -0.545653 841.879 7.02269C722.213 22.4722 607.877 64.9235 488.227 81.8503C476.9 83.3652 465.669 85.5867 454.514 88.1466C325.38 114.841 192.503 90.2261 66.605 58.1031C44.4466 52.1657 22.3138 45.7744 0.86772 38.6289C0.975509 38.3135 1.08317 37.998 1.19096 37.6826C22.6066 44.7618 44.7521 51.1042 66.9015 56.9881C192.75 88.828 325.604 113.138 454.114 86.4058C465.301 83.8259 476.584 81.581 487.985 80.0447C607.319 63.0551 721.651 20.5406 841.629 5.03836C902.946 -2.54413 968.224 -3.23354 1025.51 23.3124C1107.16 51.3618 1196.02 51.5475 1282.14 56.8594C1304.85 57.8353 1327.78 58.6156 1350.62 59.0433Z" fill="#A9B243"/>
</svg>
