<svg width="1378" height="138" viewBox="0 0 1378 138" fill="none" xmlns="http://www.w3.org/2000/svg">
<path d="M70.3042 116.684C93.3898 115.62 121.562 89.2486 121.562 89.2486C121.562 89.2486 91.0481 65.1539 67.6359 65.7683C57.2182 66.0417 47.1206 70.269 40.0293 74.1048C33.1586 77.8213 27.5371 83.3452 22.4263 89.2526L56.073 91.0838L22.6977 94.4298C22.6977 94.4298 26.6633 101.833 30.4237 104.41C34.1841 106.987 50.5325 117.595 70.3042 116.684Z" fill="#A9B243"/>
<path d="M1377.27 58.6148C1377.27 58.6148 1154.85 101.133 1005.27 94.1117C829.005 85.8378 570.189 21.0087 394.274 7.11253C185.292 -9.3957 24.2734 72.6111 24.2734 72.6111" stroke="#A9B243"/>
<path d="M34.9702 55.3348C40.6962 45.1642 36.4108 25.7459 36.4108 25.7459C36.4108 25.7459 17.3769 32.0632 11.3611 42.2481C7.68399 48.4734 7.22011 58.9378 7.22649 63.9407C7.22874 65.7063 8.22548 67.2903 9.76965 68.1462L19.6356 54.2676L12.1703 69.4769C12.1703 69.4769 16.2464 70.1815 18.0692 69.2067C22.6892 66.7362 31.2005 62.0306 34.9702 55.3348Z" fill="#A9B243"/>
<path d="M1029.83 129.355C1040.9 133.04 1062.09 120.449 1062.09 120.449C1062.09 120.449 1049 106.721 1038.67 100.335C1032.44 96.4829 1021.55 100.012 1016.46 102.035C1014.67 102.747 1013.35 104.263 1012.75 106.097L1028.22 113.249L1011.85 108.875C1011.85 108.875 1011.89 113.293 1013.24 115.04C1016.51 119.302 1022.6 126.951 1029.83 129.355Z" fill="#A9B243"/>
</svg>
