<svg width="241" height="229" viewBox="0 0 241 229" fill="none" xmlns="http://www.w3.org/2000/svg">
<rect x="23.8652" y="26.3187" width="197.863" height="12.7472" fill="#EDC49B"/>
<rect x="31.5742" y="39.0658" width="182.445" height="10.1978" fill="#C18D55"/>
<path d="M31.5742 49.2633H214.019L219.872 58.9415C222.383 63.0938 225.432 66.8955 228.941 70.2476L241 81.7688H1.38086L16.8508 68.0082C18.9513 66.1398 20.8436 64.0497 22.4948 61.7744L31.5742 49.2633Z" fill="#155840"/>
<rect x="0.738281" y="81.1316" width="240.262" height="10.1978" fill="#0E4B3A"/>
<rect x="23.8652" y="91.3291" width="197.863" height="128.747" fill="#CB9360"/>
<rect x="23.8652" y="91.3291" width="15.4179" height="128.747" fill="#EFC296"/>
<rect x="206.309" y="91.3291" width="15.4179" height="128.747" fill="#EFC296"/>
<rect x="138.214" y="121.923" width="53.9625" height="98.1538" fill="#814227"/>
<path d="M147.208 135.396C147.208 134.291 148.103 133.396 149.208 133.396H183.753C184.857 133.396 185.753 134.291 185.753 135.396V183.66C185.753 184.764 184.857 185.66 183.753 185.66H149.208C148.103 185.66 147.208 184.764 147.208 183.66V135.396Z" fill="#9AA3A7"/>
<rect x="58.5557" y="121.923" width="64.2411" height="63.7362" fill="#814227"/>
<rect x="62.4092" y="125.747" width="56.5322" height="56.0879" fill="#9AA3A7"/>
<line y1="-0.5" x2="45.6784" y2="-0.5" transform="matrix(0.450041 0.893008 -0.895831 0.444395 5.87793 91.3291)" stroke="#575454"/>
<line y1="-0.5" x2="44.0784" y2="-0.5" transform="matrix(-0.378932 0.925425 -0.927496 -0.373834 233.291 91.3291)" stroke="#575454"/>
<rect x="62.4092" y="0.824463" width="118.204" height="31.8681" fill="#C77800"/>
<path d="M70.1185 5.92264H170.335C169.764 7.90563 171.553 9.76324 173.556 9.26645L174.189 9.10945V23.7688L173.632 23.7135C171.517 23.5037 170.23 25.9844 171.619 27.593H70.1185L70.1757 27.4226C70.779 25.6269 69.4431 23.7688 67.5488 23.7688V9.10945C69.2966 9.39846 70.7232 7.72269 70.1591 6.04343L70.1185 5.92264Z" fill="#D9D9D9"/>
<path d="M105.024 18.876C105.024 18.628 104.924 18.396 104.724 18.18C104.524 17.964 104.272 17.768 103.968 17.592C103.672 17.408 103.268 17.184 102.756 16.92C102.148 16.6 101.66 16.328 101.292 16.104C100.924 15.872 100.608 15.6 100.344 15.288C100.088 14.976 99.96 14.632 99.96 14.256C99.96 13.856 100.128 13.428 100.464 12.972C100.8 12.508 101.208 12.12 101.688 11.808C102.176 11.488 102.624 11.328 103.032 11.328C103.528 11.328 104.104 11.388 104.76 11.508C105.416 11.628 105.896 11.756 106.2 11.892V14.22H105.744C105.352 13.572 104.92 13.068 104.448 12.708C103.984 12.348 103.496 12.168 102.984 12.168C102.528 12.168 102.164 12.312 101.892 12.6C101.628 12.88 101.496 13.248 101.496 13.704C101.496 13.968 101.596 14.216 101.796 14.448C102.004 14.672 102.256 14.872 102.552 15.048C102.856 15.224 103.276 15.452 103.812 15.732C104.404 16.028 104.884 16.292 105.252 16.524C105.62 16.748 105.928 17.012 106.176 17.316C106.432 17.612 106.56 17.948 106.56 18.324C106.56 18.724 106.38 19.156 106.02 19.62C105.66 20.076 105.22 20.464 104.7 20.784C104.188 21.096 103.72 21.252 103.296 21.252C102.776 21.252 102.156 21.192 101.436 21.072C100.724 20.952 100.212 20.824 99.9 20.688V18.36H100.356C100.764 19.008 101.228 19.512 101.748 19.872C102.268 20.232 102.804 20.412 103.356 20.412C103.684 20.412 103.976 20.34 104.232 20.196C104.488 20.052 104.684 19.864 104.82 19.632C104.956 19.392 105.024 19.14 105.024 18.876ZM118.01 21H114.362V20.628L115.49 19.74V16.572H110.75V20.088L112.01 20.52L111.77 21H108.122V20.628L109.25 19.74V12.468L108.002 12.048L108.242 11.568H111.89V11.94L110.75 12.828V16.032H115.49V12.468L114.242 12.048L114.482 11.568H118.13V11.94L116.99 12.828V20.088L118.25 20.52L118.01 21ZM124.852 11.328C125.7 11.328 126.448 11.532 127.096 11.94C127.752 12.348 128.26 12.912 128.62 13.632C128.98 14.352 129.16 15.168 129.16 16.08C129.16 17.016 128.888 17.88 128.344 18.672C127.8 19.464 127.124 20.092 126.316 20.556C125.508 21.012 124.736 21.24 124 21.24C123.152 21.24 122.4 21.04 121.744 20.64C121.096 20.232 120.592 19.668 120.232 18.948C119.872 18.228 119.692 17.412 119.692 16.5C119.692 15.564 119.964 14.7 120.508 13.908C121.052 13.108 121.728 12.48 122.536 12.024C123.344 11.56 124.116 11.328 124.852 11.328ZM124.156 12.336C123.628 12.336 123.144 12.492 122.704 12.804C122.272 13.108 121.932 13.536 121.684 14.088C121.436 14.632 121.312 15.244 121.312 15.924C121.312 16.708 121.436 17.428 121.684 18.084C121.932 18.732 122.308 19.252 122.812 19.644C123.324 20.036 123.952 20.232 124.696 20.232C125.224 20.232 125.704 20.08 126.136 19.776C126.576 19.464 126.92 19.036 127.168 18.492C127.416 17.94 127.54 17.324 127.54 16.644C127.54 15.852 127.416 15.132 127.168 14.484C126.92 13.828 126.544 13.308 126.04 12.924C125.536 12.532 124.908 12.336 124.156 12.336ZM135.252 16.404C135.796 16.404 136.224 16.256 136.536 15.96C136.856 15.664 137.016 15.256 137.016 14.736C137.016 14 136.828 13.4 136.452 12.936C136.084 12.464 135.544 12.228 134.832 12.228C134.288 12.228 133.792 12.384 133.344 12.696V20.016L135.204 20.532L134.964 21.012H130.716V20.64L131.844 19.752V12.456L130.596 12.048L130.836 11.568H132.228C133.004 11.568 133.768 11.544 134.52 11.496C135.08 11.464 135.492 11.448 135.756 11.448C136.316 11.448 136.812 11.568 137.244 11.808C137.684 12.04 138.024 12.364 138.264 12.78C138.504 13.196 138.624 13.656 138.624 14.16C138.624 14.72 138.42 15.248 138.012 15.744C137.604 16.24 137.084 16.628 136.452 16.908C135.82 17.188 135.2 17.312 134.592 17.28L134.028 16.872L134.268 16.392H135.24L135.252 16.404Z" fill="#35394C"/>
<rect x="5.87793" y="211.154" width="235.122" height="8.92307" fill="#D2B8B8"/>
<line y1="-0.5" x2="235.126" y2="-0.5" transform="matrix(0.999985 -0.00542146 0.00550768 0.999985 5.87793 212.428)" stroke="#EFE8DE"/>
<rect x="138.214" y="209.879" width="53.9625" height="7.64835" fill="#A59EA7"/>
<path d="M138.214 214.978H192.176L198.6 221.352H133.074L138.214 214.978Z" fill="#C9C6C6"/>
<line x1="138.214" y1="210.654" x2="192.176" y2="210.654" stroke="#D9D9D9"/>
<rect x="133.074" y="221.352" width="65.5259" height="7.64835" fill="#A098A3"/>
</svg>
