<svg width="1378" height="124" viewBox="0 0 1378 124" fill="none" xmlns="http://www.w3.org/2000/svg">
<path d="M1307.55 116.683C1284.47 115.62 1256.29 89.2483 1256.29 89.2483C1256.29 89.2483 1286.81 65.1537 1310.22 65.7681C1320.64 66.0415 1330.73 70.2687 1337.83 74.1046C1344.7 77.821 1350.32 83.345 1355.43 89.2524L1321.78 91.0836L1355.16 94.4296C1355.16 94.4296 1351.19 101.832 1347.43 104.409C1343.67 106.986 1327.32 117.594 1307.55 116.683Z" fill="#A9B243"/>
<path d="M0.582611 58.6146C0.582611 58.6146 223.006 101.132 372.582 94.1114C548.851 85.8375 807.667 21.0084 983.582 7.11228C1192.56 -9.39595 1353.58 72.6109 1353.58 72.6109" stroke="#A9B243"/>
<path d="M1342.89 55.3346C1337.16 45.1639 1341.44 25.7457 1341.44 25.7457C1341.44 25.7457 1360.48 32.063 1366.49 42.2479C1370.17 48.4732 1370.64 58.9375 1370.63 63.9405C1370.63 65.706 1369.63 67.29 1368.09 68.146L1358.22 54.2674L1365.69 69.4767C1365.69 69.4767 1361.61 70.1812 1359.79 69.2065C1355.17 66.7359 1346.65 62.0303 1342.89 55.3346Z" fill="#A9B243"/>
<path d="M178.694 113.841C167.557 117.332 142.559 107.658 142.559 107.658C142.559 107.658 155.894 94.1606 166.328 87.9562C172.623 84.213 183.452 87.9321 188.508 90.0432C190.287 90.7862 191.577 92.3253 192.141 94.1693L176.55 101.051L192.995 96.9624C192.995 96.9624 192.917 101.417 191.672 103.234C189.381 106.577 185.532 111.697 178.694 113.841Z" fill="#A9B243"/>
</svg>
