<svg width="31" height="31" viewBox="0 0 31 31" fill="none" xmlns="http://www.w3.org/2000/svg">
<path d="M15.5 28.7335C22.7268 28.7335 28.7336 22.7267 28.7336 15.4998C28.7336 8.26019 22.7136 2.26611 15.4867 2.26611C8.24763 2.26611 2.26685 8.26019 2.26685 15.4998C2.26685 22.7267 8.26036 28.7335 15.5 28.7335ZM12.1143 18.7304C8.89642 15.5253 6.84654 11.4388 9.27285 9.01249C9.41567 8.86967 9.57122 8.7274 9.71404 8.58458C10.4536 7.88376 11.1672 7.92306 11.8027 8.81819L13.4894 11.2185C14.0601 12.0488 13.9173 12.5155 13.3078 13.1643L12.7758 13.7483C12.5815 13.9299 12.6596 14.1762 12.7498 14.3323C12.9967 14.799 13.697 15.6293 14.4493 16.3822C15.2282 17.1605 16.0192 17.822 16.5125 18.0944C16.694 18.1985 16.9537 18.2245 17.1225 18.0689L17.6799 17.5369C18.3027 16.9269 18.8092 16.7713 19.6136 17.3421C20.4262 17.9199 21.2436 18.4908 22.0659 19.0548C22.883 19.6516 23.0773 20.3911 22.2469 21.1435C22.1046 21.2863 21.9745 21.4424 21.8317 21.5847C19.406 23.9982 15.3317 21.9478 12.1143 18.7304Z" fill="#439CB0"/>
</svg>
