<svg width="77" height="80" viewBox="0 0 77 80" fill="none" xmlns="http://www.w3.org/2000/svg">
<ellipse cx="38.5" cy="40" rx="38.5" ry="40" fill="#1E1C1C" fill-opacity="0.72"/>
<path fill-rule="evenodd" clip-rule="evenodd" d="M39.0865 60.6397L39.0663 60.6434L38.9362 60.7076L38.8995 60.7149L38.8738 60.7076L38.7437 60.6434C38.7241 60.6373 38.7094 60.6403 38.6997 60.6525L38.6923 60.6709L38.6612 61.4555L38.6703 61.4922L38.6887 61.5161L38.8793 61.6517L38.9068 61.659L38.9288 61.6517L39.1195 61.5161L39.1415 61.4867L39.1488 61.4555L39.1177 60.6727C39.1128 60.6532 39.1024 60.6422 39.0865 60.6397ZM39.5723 60.4326L39.5485 60.4362L39.2093 60.6067L39.191 60.6251L39.1855 60.6452L39.2185 61.4336L39.2277 61.4555L39.2423 61.4684L39.6108 61.6389C39.6341 61.645 39.6518 61.6401 39.664 61.6242L39.6713 61.5986L39.609 60.4729C39.6029 60.4509 39.5907 60.4374 39.5723 60.4326ZM38.2615 60.4362C38.2534 60.4313 38.2438 60.4297 38.2345 60.4318C38.2253 60.4338 38.2173 60.4394 38.212 60.4472L38.201 60.4729L38.1387 61.5986C38.1399 61.6206 38.1503 61.6352 38.1698 61.6426L38.1973 61.6389L38.5658 61.4684L38.5842 61.4537L38.5915 61.4336L38.6227 60.6452L38.6172 60.6232L38.5988 60.6049L38.2615 60.4362Z" fill="white"/>
<path fill-rule="evenodd" clip-rule="evenodd" d="M26.393 26.7267C26.4425 26.3104 26.5884 25.9114 26.8192 25.5614C27.05 25.2115 27.3592 24.9201 27.7223 24.7106C28.0854 24.5011 28.4924 24.3792 28.9109 24.3546C29.3294 24.33 29.7478 24.4034 30.133 24.5688C32.08 25.4012 36.4433 27.3793 41.98 30.5748C47.5185 33.7722 51.4143 36.5643 53.1065 37.8312C54.5512 38.9147 54.5548 41.0633 53.1083 42.1505C51.4327 43.41 47.5845 46.1655 41.98 49.4032C36.37 52.6408 32.058 54.5952 30.1293 55.4165C28.4683 56.126 26.6093 55.0498 26.393 53.2587C26.14 51.165 25.667 46.4112 25.667 39.9908C25.667 33.5742 26.1382 28.8222 26.393 26.7267Z" fill="white"/>
</svg>
