<svg width="25" height="25" viewBox="0 0 25 25" fill="none" xmlns="http://www.w3.org/2000/svg">
<path d="M20.1436 20.143L16.7973 16.7965M16.7973 16.7965C17.541 16.0528 18.1309 15.17 18.5333 14.1984C18.9358 13.2267 19.143 12.1853 19.143 11.1336C19.143 10.082 18.9358 9.04056 18.5333 8.06893C18.1309 7.09729 17.541 6.21444 16.7973 5.47079C16.0537 4.72713 15.1708 4.13723 14.1992 3.73476C13.2275 3.3323 12.1862 3.12515 11.1345 3.12515C10.0828 3.12515 9.04139 3.3323 8.06975 3.73476C7.09812 4.13723 6.21527 4.72713 5.47161 5.47079C3.96973 6.97267 3.12598 9.00966 3.12598 11.1336C3.12598 13.2576 3.96973 15.2946 5.47161 16.7965C6.97349 18.2984 9.01048 19.1421 11.1345 19.1421C13.2585 19.1421 15.2954 18.2984 16.7973 16.7965Z" stroke="#AAA3A3" stroke-width="2" stroke-linecap="round" stroke-linejoin="round"/>
</svg>
