<svg width="15" height="13" viewBox="0 0 15 13" fill="none" xmlns="http://www.w3.org/2000/svg">
<path d="M7.43032 0.514683C7.52294 0.31778 7.80547 0.324998 7.88791 0.526374L9.64473 4.81768C9.67796 4.89884 9.75128 4.95666 9.83795 4.97004L14.3208 5.66209C14.5515 5.69771 14.6118 6.00207 14.4121 6.123L10.5199 8.48034C10.4181 8.542 10.3738 8.6669 10.4142 8.77889L11.7176 12.3977C11.7947 12.6119 11.5687 12.8094 11.3668 12.7041L7.78796 10.8389C7.71555 10.8011 7.62928 10.8011 7.55687 10.8389L3.92362 12.7325C3.72931 12.8338 3.50798 12.6538 3.56746 12.4429L4.60352 8.76949C4.63404 8.66129 4.58858 8.54602 4.49242 8.48779L0.588994 6.12368C0.389181 6.00266 0.449751 5.69808 0.680662 5.66272L5.21311 4.96864C5.29541 4.95604 5.36604 4.90328 5.40149 4.82793L7.43032 0.514683Z" fill="#35394C"/>
</svg>
