<svg width="29" height="24" viewBox="0 0 29 24" fill="none" xmlns="http://www.w3.org/2000/svg">
<path d="M0.5 12C0.5 11.4033 0.737053 10.831 1.15901 10.409C1.58097 9.98708 2.15326 9.75003 2.75 9.75003H20.57L14.66 3.84003C14.2626 3.4135 14.0462 2.84936 14.0565 2.26646C14.0668 1.68356 14.3029 1.1274 14.7151 0.715163C15.1274 0.302924 15.6835 0.0667875 16.2664 0.0565029C16.8493 0.0462182 17.4135 0.262588 17.84 0.660028L27.59 10.41C28.0114 10.8319 28.248 11.4038 28.248 12C28.248 12.5963 28.0114 13.1682 27.59 13.59L17.84 23.34C17.4135 23.7375 16.8493 23.9538 16.2664 23.9436C15.6835 23.9333 15.1274 23.6971 14.7151 23.2849C14.3029 22.8727 14.0668 22.3165 14.0565 21.7336C14.0462 21.1507 14.2626 20.5866 14.66 20.16L20.57 14.25H2.75C2.15326 14.25 1.58097 14.013 1.15901 13.591C0.737053 13.1691 0.5 12.5968 0.5 12Z" fill="#888484"/>
</svg>
