<svg width="34" height="35" viewBox="0 0 34 35" fill="none" xmlns="http://www.w3.org/2000/svg">
<path d="M0.615007 9.47211C1.4492 7.32574 1.05789 8.62177 2.28383 6.51179C3.31995 4.72851 5.21749 3.3001 6.96939 2.16776C8.72129 1.03543 10.7225 0.322343 12.8103 0.0865011C14.8981 -0.14934 17.0135 0.0987229 18.9844 0.810516C20.9553 1.52231 22.7262 2.67773 24.1529 4.18281C25.5796 5.68789 26.6219 7.50012 27.195 9.47211C27.768 11.4441 27.8558 13.5202 27.451 15.5314C25.619 21.2049 22.7377 24.4321 21.4428 26.0466L30.6613 35L33.9998 33.3721L24.3763 22.107C22.315 24.9705 23.1496 23.6047 21.4428 26.0466C18.3771 27.852 14.107 26.8839 10.6301 26.0466C7.15326 25.2092 3.30084 21.7107 1.44947 18.721C-0.401893 15.7313 -0.243642 12.8628 0.615007 9.47211ZM4.34513 12.4304C4.34513 15.0209 5.40034 17.5053 7.27863 19.337C9.15691 21.1687 11.7044 22.1978 14.3607 22.1978C17.017 22.1978 19.5645 21.1687 21.4428 19.337C23.3211 17.5053 24.3763 15.0209 24.3763 12.4304C24.3763 9.83994 23.3211 7.35557 21.4428 5.52383C19.5645 3.69209 17.017 2.66303 14.3607 2.66303C11.7044 2.66303 9.15691 3.69209 7.27863 5.52383C5.40034 7.35557 4.34513 9.83994 4.34513 12.4304Z" fill="#35394C"/>
</svg>
