<svg width="1440" height="239" viewBox="0 0 1440 239" fill="none" xmlns="http://www.w3.org/2000/svg">
<rect y="8.97708" width="1440" height="230" fill="#DAE1E6"/>
<path d="M807.558 134.066C812.986 132.212 818.638 131.097 824.364 130.75L988.711 120.785C994.837 120.413 1000.92 119.539 1006.9 118.171L1116.94 93.0047L1249.02 69.3324C1254.88 68.2828 1260.81 67.7101 1266.76 67.6199L1440 64.9937V196.369H1065.12L704.811 169.147L807.558 134.066Z" fill="#4F6F59"/>
<path d="M997.975 180.071C997.975 192.572 973.472 196.369 948.304 196.369C923.137 196.369 906.836 192.572 906.836 180.071C906.836 167.569 929.517 141.136 954.684 141.136C979.851 141.136 997.975 167.569 997.975 180.071Z" fill="#3D4C37"/>
<path d="M1318.48 169.813C1318.48 182.315 1286.22 186.111 1253.08 186.111C1219.94 186.111 1198.48 182.315 1198.48 169.813C1198.48 157.311 1228.34 130.878 1261.48 130.878C1294.62 130.878 1318.48 157.311 1318.48 169.813Z" fill="#3D4C37"/>
<path d="M1362 164.5C1372 180 1348.47 190.846 1337.14 190.846C1325.82 190.846 1318.48 187.049 1318.48 174.547C1318.48 162.046 1328.69 135.613 1340.01 135.613C1351.34 135.613 1354.9 153.5 1362 164.5Z" fill="#3D4C37"/>
<path d="M1209.11 175.168C1209.11 183.562 1203.4 186.111 1197.52 186.111C1191.65 186.111 1187.85 183.562 1187.85 175.168C1187.85 166.774 1193.14 149.026 1199.01 149.026C1204.88 149.026 1209.11 166.774 1209.11 175.168Z" fill="#3D4C37"/>
<path d="M1440 162.77C1440 175.219 1418.76 179 1396.95 179C1375.13 179 1352 176 1361 162.77C1361 150.321 1375.13 126 1396.95 126C1418.76 126 1440 150.321 1440 162.77Z" fill="#3D4C37"/>
<path d="M1198.48 177.341C1198.48 187.7 1181.74 190.846 1164.54 190.846C1147.34 190.846 1136.2 187.7 1136.2 177.341C1136.2 166.983 1151.7 145.081 1168.9 145.081C1186.1 145.081 1198.48 166.983 1198.48 177.341Z" fill="#3D4C37"/>
<path d="M1136.2 179.631C1136.2 186.418 1124.36 188.478 1112.2 188.478C1100.03 188.478 1092.15 186.418 1092.15 179.631C1092.15 172.844 1103.11 158.495 1115.28 158.495C1127.44 158.495 1136.2 172.844 1136.2 179.631Z" fill="#3D4C37"/>
<path d="M1032.91 179.437C1032.91 188.188 1023.52 190.846 1013.87 190.846C1004.22 190.846 997.975 188.188 997.975 179.437C997.975 170.686 1006.67 152.183 1016.32 152.183C1025.96 152.183 1032.91 170.686 1032.91 179.437Z" fill="#3D4C37"/>
<path d="M923.545 177.07C923.545 185.821 907.618 188.478 891.259 188.478C874.9 188.478 864.305 185.821 864.305 177.07C864.305 168.318 879.047 149.815 895.406 149.815C911.765 149.815 923.545 168.318 923.545 177.07Z" fill="#3D4C37"/>
<path d="M0 138.968H58.481L105.883 143.893C122.32 145.6 138.904 145.264 155.258 142.892L215.705 134.125C236.829 131.061 258.307 131.399 279.324 135.124L313.86 141.247C333.373 144.706 353.29 145.246 372.961 142.849L404.81 138.968H502.785L654.684 157.511L944 185H1165L1440 191.5V206L0 185.127V138.968Z" fill="#788654"/>
<path d="M0 173.759L266.582 163.229L1156.5 185.5L1440 173.759V238.977H0V173.759Z" fill="#B5B73C"/>
<path d="M1153.57 58.1738C1152.71 58.1738 1151.87 58.2836 1151.07 58.487C1151.25 57.6688 1151.35 56.8319 1151.35 55.9923C1151.35 49.8518 1146.5 44.874 1140.53 44.874C1138.35 44.8709 1136.22 45.5485 1134.42 46.8173C1132.39 38.7814 1125.29 32.848 1116.83 32.848C1106.8 32.848 1098.66 41.2087 1098.66 51.5221C1091.12 51.5221 1085 57.808 1085 65.5621C1085 73.3161 1091.12 79.6022 1098.66 79.6022H1153.57C1159.33 79.6022 1164 74.8052 1164 68.8879C1164 62.9705 1159.33 58.1738 1153.57 58.1738Z" fill="#F6F9FA"/>
<path d="M1122.98 54.9373C1123.42 54.3514 1121.14 48.4359 1126.81 42.8229C1132.47 37.2098 1137.19 39.4216 1137.76 39.1294C1138.33 38.8454 1139.42 26.0909 1150.82 21.2143C1162.22 16.3377 1175.42 20.6231 1179.74 30.2605C1183.7 39.0696 1182.5 45.5458 1182.87 45.9022C1183.22 46.2597 1188.92 45.2547 1192.98 50.1123C1197.04 54.97 1196.31 58.4564 1196.31 58.4564L1176.14 67.9495L1142.39 72.6927C1142.39 72.6927 1111.55 69.0368 1111.05 67.6733C1110.56 66.3098 1110.59 61.6479 1115.05 58.1985C1118.92 55.2022 1122.2 55.9709 1122.98 54.9373Z" fill="#CED3D7"/>
<path d="M1134.4 75.5543C1134.4 75.5543 1123.47 79.4914 1115.03 74.6676C1109.95 71.758 1110.81 65.7652 1110.81 65.7652C1110.81 65.7652 1114.56 68.6218 1121.31 68.5892C1128.07 68.5638 1135.46 67.2121 1135.46 67.2121C1135.46 67.2121 1137.76 70.1194 1144.95 70.5933C1153.96 71.1824 1157.95 66.0526 1157.95 66.0526C1157.95 66.0526 1160.75 68.584 1169.22 67.5975C1177.69 66.611 1181.59 60.0523 1182.36 59.8054C1182.75 59.6851 1185.38 61.4702 1189.88 60.0803C1194.17 58.7572 1196.21 56.5272 1196.21 56.5272C1196.21 56.5272 1197.51 61.1615 1193.5 64.6934C1190.38 67.4468 1184.42 68.5318 1184.42 68.5318C1184.42 68.5318 1184 72.1636 1180.24 75.2895C1176.75 78.2031 1170.27 79.9217 1165.18 79.152C1158.79 78.1868 1156.88 75.6105 1156.88 75.6105C1156.88 75.6105 1152.69 78.928 1145.43 79.0246C1138.57 79.1303 1134.4 75.5543 1134.4 75.5543Z" fill="#DAE1E6"/>
<path d="M215 168.033C215 174.144 210.429 176 205.735 176C201.041 176 198 174.144 198 168.033C198 161.921 202.231 149 206.925 149C211.619 149 215 161.921 215 168.033Z" fill="#3D4C37"/>
<rect x="205.062" y="175.854" width="3.03797" height="8.67945" fill="#645959"/>
<rect x="610.633" y="181.377" width="1.51899" height="5.52329" fill="#645959"/>
<path d="M618 175.689C618 179.763 614.236 181 610.37 181C606.504 181 604 179.763 604 175.689C604 171.614 607.484 163 611.35 163C615.216 163 618 171.614 618 175.689Z" fill="#3D4C37"/>
<path d="M95 164.689C95 168.763 91.5049 170 87.915 170C84.3251 170 82 168.763 82 164.689C82 160.614 85.2351 152 88.825 152C92.4149 152 95 160.614 95 164.689Z" fill="#3D4C37"/>
<path d="M574 170.689C574 174.763 570.505 176 566.915 176C563.325 176 561 174.763 561 170.689C561 166.614 564.235 158 567.825 158C571.415 158 574 166.614 574 170.689Z" fill="#3D4C37"/>
<rect x="566.582" y="175.854" width="1.51899" height="5.52329" fill="#645959"/>
<rect x="86.582" y="169.542" width="3.03797" height="6.31233" fill="#645959"/>
</svg>
