<svg width="35" height="35" viewBox="0 0 35 35" fill="none" xmlns="http://www.w3.org/2000/svg">
<path d="M12.9684 7.75798C13.82 5.26598 17.2632 5.1905 18.2728 7.53156L18.3583 7.7594L19.5074 11.12C19.7708 11.8908 20.1964 12.596 20.7555 13.1883C21.3146 13.7806 21.9942 14.246 22.7485 14.5533L23.0575 14.6687L26.4181 15.8164C28.9101 16.6679 28.9856 20.1112 26.6459 21.1208L26.4181 21.2062L23.0575 22.3554C22.2865 22.6186 21.5809 23.0441 20.9884 23.6032C20.3959 24.1623 19.9302 24.842 19.6228 25.5964L19.5074 25.904L18.3597 29.2661C17.5081 31.7581 14.0649 31.8336 13.0567 29.4939L12.9684 29.2661L11.8207 25.9054C11.5575 25.1345 11.132 24.4289 10.5729 23.8364C10.0138 23.2439 9.33407 22.7782 8.57965 22.4707L8.27206 22.3554L4.91142 21.2077C2.418 20.3561 2.34253 16.9129 4.68358 15.9047L4.91142 15.8164L8.27206 14.6687C9.04278 14.4053 9.74806 13.9797 10.3403 13.4206C10.9326 12.8615 11.398 12.1819 11.7053 11.4276L11.8207 11.12L12.9684 7.75798ZM15.6641 8.67788L14.5163 12.0385C14.1153 13.2138 13.4629 14.2875 12.6046 15.1848C11.7463 16.0822 10.7028 16.7818 9.54655 17.2347L9.19054 17.3643L5.8299 18.512L9.19054 19.6598C10.3658 20.0608 11.4395 20.7132 12.3369 21.5714C13.2343 22.4297 13.9338 23.4733 14.3867 24.6295L14.5163 24.9855L15.6641 28.3462L16.8118 24.9855C17.2128 23.8103 17.8652 22.7366 18.7235 21.8392C19.5818 20.9418 20.6253 20.2423 21.7816 19.7894L22.1376 19.6612L25.4982 18.512L22.1376 17.3643C20.9623 16.9633 19.8886 16.3109 18.9912 15.4526C18.0938 14.5943 17.3943 13.5507 16.9414 12.3945L16.8132 12.0385L15.6641 8.67788ZM27.0561 2.84802C27.3225 2.84802 27.5835 2.92275 27.8096 3.06372C28.0356 3.20468 28.2176 3.40623 28.3348 3.64546L28.4032 3.81207L28.9016 5.2731L30.364 5.7715C30.631 5.8622 30.865 6.03012 31.0365 6.25397C31.2079 6.47782 31.309 6.74753 31.327 7.02892C31.345 7.3103 31.2791 7.5907 31.1376 7.83457C30.996 8.07844 30.7853 8.2748 30.532 8.39878L30.364 8.46713L28.903 8.96553L28.4046 10.428C28.3137 10.6949 28.1457 10.9288 27.9217 11.1001C27.6978 11.2714 27.4281 11.3724 27.1467 11.3902C26.8653 11.408 26.585 11.342 26.3412 11.2003C26.0974 11.0587 25.9012 10.8479 25.7773 10.5946L25.709 10.428L25.2106 8.96695L23.7481 8.46855C23.4811 8.37785 23.2471 8.20993 23.0756 7.98608C22.9042 7.76223 22.8031 7.49252 22.7851 7.21113C22.7671 6.92974 22.833 6.64935 22.9746 6.40548C23.1161 6.16161 23.3268 5.96525 23.5801 5.84127L23.7481 5.77292L25.2091 5.27452L25.7075 3.81207C25.8035 3.53072 25.9852 3.28648 26.2271 3.1136C26.4689 2.94071 26.7588 2.84784 27.0561 2.84802Z" fill="white"/>
</svg>
