<svg width="21" height="28" viewBox="0 0 21 28" fill="none" xmlns="http://www.w3.org/2000/svg">
<path d="M1.75 0C0.782031 0 0 0.782031 0 1.75C0 2.71797 0.782031 3.5 1.75 3.5V4.10156C1.75 6.42031 2.67422 8.64609 4.31484 10.2867L8.02266 14L4.31484 17.7133C2.67422 19.3539 1.75 21.5797 1.75 23.8984V24.5C0.782031 24.5 0 25.282 0 26.25C0 27.218 0.782031 28 1.75 28H19.25C20.218 28 21 27.218 21 26.25C21 25.282 20.218 24.5 19.25 24.5V23.8984C19.25 21.5797 18.3258 19.3539 16.6852 17.7133L12.9773 14L16.6906 10.2867C18.3313 8.64609 19.2555 6.42031 19.2555 4.10156V3.5C20.2234 3.5 21.0055 2.71797 21.0055 1.75C21.0055 0.782031 20.2234 0 19.2555 0H1.75ZM15.75 23.8984V24.5H5.25V23.8984C5.25 22.5039 5.80234 21.1695 6.78672 20.1852L10.5 16.4773L14.2133 20.1906C15.1977 21.175 15.75 22.5094 15.75 23.9039V23.8984Z" fill="#439CB0"/>
</svg>
