<svg width="716" height="99" viewBox="0 0 716 99" fill="none" xmlns="http://www.w3.org/2000/svg">
<path d="M0 31.9556C0 14.307 14.307 0 31.9556 0H47.0889L94.5004 8.39233e-05H152.573L245.152 2.01201H512.79H559.921L656.053 0.327517C667.041 0.134975 676.756 7.43043 679.635 18.0365L685.216 38.5956C687.499 47.0062 687.377 55.8886 684.863 64.233C684.647 64.9493 683.999 65.4486 683.251 65.4747L657.279 66.3794L682.917 68.6121C683.844 68.6928 684.594 69.4033 684.724 70.3255L684.857 71.2729C686.892 85.7167 675.678 98.6208 661.092 98.6208H626.41H559.921L523.751 94.3535L498.845 88.6639L470.389 85.819L505.422 92.2312C506.627 92.4518 506.455 94.2292 505.23 94.2148L192.398 90.5336L72.0889 94.3535L43.4561 89.4948C18.3619 85.2365 0.000137118 63.4964 7.7981e-06 38.0435C3.52831e-06 37.2032 0.694156 36.5288 1.53419 36.5531L32.7727 37.457L0.752197 32.8244C0.320399 32.762 0 32.3919 0 31.9556Z" fill="#554030"/>
<path d="M139.68 65.672C138.496 65.672 137.904 64.456 137.904 62.024C137.904 60.488 137.232 55 135.888 45.56C134.576 36.088 133.744 30.92 133.392 30.056C133.808 29.288 134.368 28.904 135.072 28.904C135.808 28.904 136.496 30.568 137.136 33.896C137.744 37.416 138.256 41.448 138.672 45.992L139.008 49.88C139.2 52.056 139.312 53.16 139.344 53.192L139.824 49.16L140.112 46.664C140.528 43.016 140.8 40.44 140.928 38.936C141.088 36.952 141.168 35.592 141.168 34.856V33.944C141.168 33.592 141.296 33.256 141.552 32.936C141.808 32.616 142.096 32.456 142.416 32.456C143.568 32.456 144.144 32.936 144.144 33.896V34.616C144.144 36.44 144.32 38.408 144.672 40.52C145.056 42.6 145.6 45.096 146.304 48.008C146.752 49.704 147.2 51.768 147.648 54.2C147.744 53.144 148.048 50.584 148.56 46.52C149.072 42.808 149.44 39.656 149.664 37.064C149.92 34.44 150.048 31.992 150.048 29.72C150.048 28.984 150.16 28.472 150.384 28.184C150.64 27.864 151.104 27.704 151.776 27.704C152.16 27.704 152.496 27.832 152.784 28.088C153.104 28.312 153.264 28.616 153.264 29C153.264 29.352 153.104 29.72 152.784 30.104C152.784 32.408 152.608 35.112 152.256 38.216C151.904 41.288 151.472 44.216 150.96 47C150.448 49.72 150.016 52.648 149.664 55.784C149.312 58.888 149.136 61.624 149.136 63.992C149.136 64.504 149.008 64.904 148.752 65.192C148.528 65.512 148.176 65.672 147.696 65.672C147.344 65.672 146.928 65.016 146.448 63.704C145.84 61.88 145.088 58.248 144.192 52.808L143.328 47.192L142.896 44.072C142.48 46.984 142.16 49.336 141.936 51.128C141.744 52.888 141.552 54.984 141.36 57.416C141.136 59.752 141.024 62.056 141.024 64.328C141.024 64.648 140.88 64.952 140.592 65.24C140.336 65.528 140.032 65.672 139.68 65.672ZM167.095 65C166.007 65 165.463 62.36 165.463 57.08L165.511 54.344L165.559 52.136V51.992V51.512C165.591 51.256 165.607 50.952 165.607 50.6C165.607 50.536 165.559 50.456 165.463 50.36C165.367 50.264 165.319 50.184 165.319 50.12V50.072C165.159 50.136 164.871 50.168 164.455 50.168C164.039 50.168 163.527 50.104 162.919 49.976C162.727 49.944 162.215 49.864 161.383 49.736V55.256C161.383 56.088 161.431 57.4 161.527 59.192C161.623 60.952 161.671 62.264 161.671 63.128C161.671 63.608 161.543 64.024 161.287 64.376C161.031 64.728 160.695 64.904 160.279 64.904C159.671 64.904 159.239 64.312 158.983 63.128C158.727 61.912 158.599 60.328 158.599 58.376L158.695 54.488C158.727 53.4 158.743 52.248 158.743 51.032V50.216V49.544C158.743 49.032 158.727 48.696 158.695 48.536V48.296L158.839 45.512C158.839 44.296 158.791 42.488 158.695 40.088C158.599 37.688 158.551 35.88 158.551 34.664C158.551 34.28 158.679 33.944 158.935 33.656C159.191 33.368 159.511 33.224 159.895 33.224C160.919 33.224 161.431 34.184 161.431 36.104L161.335 42.056C161.271 43.848 161.239 45.848 161.239 48.056C161.719 48.216 162.583 48.296 163.831 48.296H165.607C165.671 48.104 165.703 47.912 165.703 47.72C165.703 46.184 165.607 43.912 165.415 40.904C165.191 38.088 165.079 35.8 165.079 34.04C165.079 33.688 165.207 33.4 165.463 33.176C165.751 32.92 166.087 32.792 166.471 32.792C166.695 32.792 167.015 32.872 167.431 33.032L167.863 33.224C167.863 37.768 168.023 43.832 168.343 51.416L168.775 63.56C168.775 64.008 168.599 64.36 168.247 64.616C167.927 64.872 167.543 65 167.095 65ZM183.993 65.432C183.257 65.432 182.713 65.32 182.361 65.096C182.009 64.872 181.833 64.456 181.833 63.848C181.833 62.888 181.673 61.256 181.353 58.952L181.161 57.944L176.409 57.224C176.217 57.96 175.945 59.448 175.593 61.688C175.401 63.256 175.097 64.296 174.681 64.808C174.457 65.096 174.137 65.24 173.721 65.24C173.337 65.24 172.985 65.128 172.665 64.904C172.345 64.648 172.185 64.344 172.185 63.992L172.281 63.752L172.329 63.56C174.441 55.336 176.041 47.224 177.129 39.224C177.129 39.096 177.145 38.888 177.177 38.6C177.209 38.28 177.241 37.832 177.273 37.256C177.369 36.072 177.465 35.128 177.561 34.424C177.689 33.72 177.881 33.192 178.137 32.84H179.769C180.217 32.84 180.601 32.952 180.921 33.176C181.241 33.368 181.401 33.656 181.401 34.04C181.401 36.472 181.737 40.088 182.409 44.888C183.049 49.816 183.369 53.272 183.369 55.256C183.369 55.448 183.449 55.944 183.609 56.744C183.769 57.48 183.849 57.96 183.849 58.184C183.849 58.408 184.009 59.368 184.329 61.064C184.617 62.6 184.761 63.592 184.761 64.04V64.088C184.761 64.792 184.505 65.24 183.993 65.432ZM180.825 56.216C180.729 55.736 180.681 55.144 180.681 54.44C180.681 51.56 180.425 47.88 179.913 43.4L179.433 38.408C178.057 45.928 177.113 51.608 176.601 55.448C177.081 55.768 178.489 56.024 180.825 56.216ZM191.569 64.232L191.521 62.36C191.489 61.816 191.473 61.208 191.473 60.536L191.521 58.904C191.425 58.552 191.185 55.048 190.801 48.392C190.417 41.736 190.193 37.464 190.129 35.576C188.273 35.512 187.089 35.32 186.577 35C186.225 34.744 186.049 34.456 186.049 34.136C186.049 33.88 186.209 33.656 186.529 33.464C186.881 33.24 187.233 33.128 187.585 33.128C188.481 33.128 189.569 33.192 190.849 33.32C192.065 33.48 193.153 33.56 194.113 33.56H194.497H194.881C195.873 33.56 196.369 33.944 196.369 34.712C196.369 35.096 196.209 35.416 195.889 35.672C195.569 35.896 195.201 36.008 194.785 36.008C194.497 36.008 194.081 35.96 193.537 35.864L192.577 35.672L192.529 35.912L192.481 36.152C192.481 39 192.753 43.544 193.297 49.784C193.809 55.64 194.065 60.184 194.065 63.416C194.065 63.8 193.889 64.136 193.537 64.424C193.217 64.712 192.849 64.856 192.433 64.856L191.569 64.232ZM223.704 66.248C223.384 66.248 223.128 66.088 222.936 65.768C222.744 65.448 222.648 64.984 222.648 64.376L222.6 57.272C222.568 56.664 222.552 55.656 222.552 54.248C222.488 51.272 222.456 47.912 222.456 44.168V41.72C222.168 43.256 221.672 45.416 220.968 48.2C220.264 51.08 219.768 53.448 219.48 55.304V55.592L219.336 56.504C219.272 57.208 219.112 57.928 218.856 58.664C218.536 59.432 218.04 59.816 217.368 59.816C216.216 59.816 215.64 58.312 215.64 55.304C215.64 53.64 215.464 51.864 215.112 49.976C214.792 48.056 214.264 45.704 213.528 42.92L212.088 37.544L211.992 43.304C211.992 45.032 212.072 48.328 212.232 53.192L212.328 56.456L212.424 63.032C212.424 63.704 212.184 64.312 211.704 64.856C210.904 64.856 210.344 64.616 210.024 64.136C209.736 63.624 209.592 62.888 209.592 61.928L209.688 57.992C209.784 56.264 209.832 54.968 209.832 54.104L209.736 44.84L209.64 35.528C209.64 34.152 209.672 32.088 209.736 29.336L211.032 28.568C211.288 28.6 211.544 28.792 211.8 29.144C212.056 29.464 212.344 29.992 212.664 30.728C213.464 32.712 214.504 36.68 215.784 42.632C215.976 43.464 216.104 44.152 216.168 44.696C216.552 46.552 216.824 47.96 216.984 48.92L217.704 52.616L218.04 51.032L218.952 47.096C219.464 44.792 219.88 42.776 220.2 41.048C220.552 39.32 220.888 37.448 221.208 35.432C221.56 33.032 221.784 31.032 221.88 29.432V29.144C221.944 28.728 222.136 28.408 222.456 28.184C222.776 27.928 223.16 27.8 223.608 27.8C223.896 27.8 224.152 27.928 224.376 28.184C224.6 28.44 224.712 28.712 224.712 29C224.712 32.84 224.856 38.584 225.144 46.232C225.304 49.976 225.416 53.64 225.48 57.224C225.544 58.856 225.576 60.92 225.576 63.416C225.576 64.152 225.384 64.808 225 65.384C224.616 65.96 224.184 66.248 223.704 66.248ZM241.134 65.432C240.398 65.432 239.854 65.32 239.502 65.096C239.15 64.872 238.974 64.456 238.974 63.848C238.974 62.888 238.814 61.256 238.494 58.952L238.302 57.944L233.55 57.224C233.358 57.96 233.086 59.448 232.734 61.688C232.542 63.256 232.238 64.296 231.822 64.808C231.598 65.096 231.278 65.24 230.862 65.24C230.478 65.24 230.126 65.128 229.806 64.904C229.486 64.648 229.326 64.344 229.326 63.992L229.422 63.752L229.47 63.56C231.582 55.336 233.182 47.224 234.27 39.224C234.27 39.096 234.286 38.888 234.318 38.6C234.35 38.28 234.382 37.832 234.414 37.256C234.51 36.072 234.606 35.128 234.702 34.424C234.83 33.72 235.022 33.192 235.278 32.84H236.91C237.358 32.84 237.742 32.952 238.062 33.176C238.382 33.368 238.542 33.656 238.542 34.04C238.542 36.472 238.878 40.088 239.55 44.888C240.19 49.816 240.51 53.272 240.51 55.256C240.51 55.448 240.59 55.944 240.75 56.744C240.91 57.48 240.99 57.96 240.99 58.184C240.99 58.408 241.15 59.368 241.47 61.064C241.758 62.6 241.902 63.592 241.902 64.04V64.088C241.902 64.792 241.646 65.24 241.134 65.432ZM237.966 56.216C237.87 55.736 237.822 55.144 237.822 54.44C237.822 51.56 237.566 47.88 237.054 43.4L236.574 38.408C235.198 45.928 234.254 51.608 233.742 55.448C234.222 55.768 235.63 56.024 237.966 56.216ZM257.35 65.816C256.614 65.816 255.83 65.016 254.998 63.416C253.75 61.016 252.518 57.064 251.302 51.56C250.95 50.056 250.662 48.664 250.438 47.384C249.286 49.688 248.71 52.472 248.71 55.736V64.616C248.71 65.352 248.39 65.72 247.75 65.72C247.27 65.72 246.87 65.576 246.55 65.288C246.262 65.032 246.118 64.664 246.118 64.184V49.64C246.118 48.232 246.278 45.64 246.598 41.864C246.918 38.568 247.078 35.976 247.078 34.088C247.334 33.48 247.798 33.176 248.47 33.176C248.886 33.176 249.238 33.32 249.526 33.608C249.814 33.896 249.958 34.248 249.958 34.664V34.808C249.542 35.512 249.334 38.424 249.334 43.544V45.272L251.11 41.768C252.198 39.496 253.222 37.544 254.182 35.912C255.078 34.312 255.734 33.512 256.15 33.512C256.662 33.512 257.094 33.624 257.446 33.848C257.83 34.072 258.022 34.392 258.022 34.808L256.87 36.728C254.47 40.6 253.126 42.84 252.838 43.448C252.838 43.992 252.822 44.472 252.79 44.888L252.742 46.328C252.742 47.704 253.286 50.28 254.374 54.056C255.494 57.8 256.422 60.28 257.158 61.496L257.782 62.36C258.39 63.192 258.694 63.928 258.694 64.568C258.694 64.92 258.55 65.208 258.262 65.432C258.006 65.688 257.702 65.816 257.35 65.816ZM265.011 65.624C264.595 65.624 264.211 65.48 263.859 65.192C263.539 64.904 263.363 64.552 263.331 64.136V62.888V61.928C263.299 61.64 263.283 61.304 263.283 60.92C263.283 60.248 263.235 59.224 263.139 57.848L263.043 54.776C263.043 53.208 263.091 50.872 263.187 47.768C263.315 44.984 263.379 42.648 263.379 40.76C263.379 40.312 263.331 39.64 263.235 38.744C263.139 37.816 263.091 37.144 263.091 36.728C263.091 34.456 263.763 33.32 265.107 33.32C266.163 33.32 267.379 33.528 268.755 33.944C270.163 34.36 270.867 34.856 270.867 35.432C270.867 35.752 270.723 36.056 270.435 36.344C270.179 36.6 269.859 36.808 269.475 36.968C268.131 36.488 266.915 36.168 265.827 36.008C265.859 36.488 265.875 37.176 265.875 38.072C265.875 39.352 265.859 40.504 265.827 41.528C265.731 43.064 265.683 44.216 265.683 44.984L265.827 45.752L266.595 45.704C266.851 45.672 267.171 45.656 267.555 45.656C269.091 45.656 269.859 46.104 269.859 47C269.859 47.352 269.715 47.656 269.427 47.912C269.139 48.136 268.771 48.248 268.323 48.248C267.747 48.248 267.299 48.216 266.979 48.152H265.779C265.843 48.984 265.875 50.2 265.875 51.8C265.875 53.4 265.859 54.84 265.827 56.12C265.731 58.072 265.683 59.528 265.683 60.488C265.683 62.28 265.715 63.176 265.779 63.176L267.363 63.128C267.907 63.096 268.563 63.08 269.331 63.08C270.547 63.08 271.155 63.464 271.155 64.232C271.155 64.68 270.947 65.016 270.531 65.24C270.147 65.496 269.667 65.624 269.091 65.624H265.011ZM277.308 65.672C276.732 65.576 276.236 65.368 275.82 65.048C275.436 64.728 275.212 64.312 275.148 63.8L275.676 62.984C275.868 62.984 276.172 63.048 276.588 63.176C277.068 63.272 277.436 63.32 277.692 63.32C278.268 63.32 278.78 63.064 279.228 62.552C279.708 62.04 280.06 61.368 280.284 60.536C280.7 59 280.908 57.624 280.908 56.408C280.908 54.296 280.236 52.072 278.892 49.736L278.364 48.824C277.756 47.768 277.244 46.824 276.828 45.992C276.412 45.16 276.06 44.264 275.772 43.304C275.388 42.056 275.196 40.808 275.196 39.56C275.196 38.152 275.516 36.68 276.156 35.144C276.476 34.408 276.924 33.816 277.5 33.368C278.108 32.888 278.78 32.648 279.516 32.648C280.092 32.648 280.62 32.84 281.1 33.224C281.612 33.576 281.868 34.008 281.868 34.52C281.868 34.808 281.756 35.032 281.532 35.192C281.308 35.352 281.036 35.432 280.716 35.432C280.364 35.432 280.028 35.336 279.708 35.144C279.004 35.176 278.444 35.8 278.028 37.016C277.676 38.136 277.5 39.064 277.5 39.8C277.5 40.728 277.644 41.672 277.932 42.632C278.22 43.56 278.588 44.408 279.036 45.176L280.092 47.096L281.772 50.264C282.22 51.16 282.572 52.2 282.828 53.384C283.116 54.568 283.26 55.768 283.26 56.984C283.26 58.936 282.812 60.792 281.916 62.552C281.468 63.448 280.828 64.168 279.996 64.712C279.196 65.256 278.3 65.528 277.308 65.528V65.672ZM299.757 65.288C299.149 65.288 298.621 65.208 298.173 65.048C297.629 64.888 297.357 64.44 297.357 63.704V35.816C297.357 35.272 297.261 34.456 297.069 33.368C296.845 32.376 296.733 31.56 296.733 30.92V30.776C297.277 29.88 297.677 29.304 297.933 29.048C298.381 29.048 298.973 28.984 299.709 28.856C300.381 28.728 300.973 28.664 301.485 28.664C301.997 28.664 302.493 28.824 302.973 29.144C303.453 29.432 303.693 29.784 303.693 30.2C303.693 31.16 302.957 31.64 301.485 31.64H300.813C300.621 31.608 300.397 31.592 300.141 31.592C299.853 31.592 299.677 31.608 299.613 31.64C299.613 32.728 299.677 34.04 299.805 35.576L299.901 36.92L299.997 39.56C299.997 40.168 299.949 41.096 299.853 42.344L299.757 45.032L300.429 44.888C301.069 44.696 301.597 44.6 302.013 44.6C302.365 44.6 302.685 44.744 302.973 45.032C303.261 45.288 303.405 45.592 303.405 45.944C303.405 46.328 303.277 46.68 303.021 47C302.797 47.288 302.509 47.432 302.157 47.432L301.581 47.384H300.957C300.477 47.384 300.141 47.496 299.949 47.72V62.552L302.637 62.408C304.461 62.408 305.373 62.824 305.373 63.656V63.848C305.181 64.232 304.829 64.552 304.317 64.808C303.805 65.032 303.309 65.176 302.829 65.24L301.245 65.288H299.757ZM319.884 65.432C319.148 65.432 318.604 65.32 318.252 65.096C317.9 64.872 317.724 64.456 317.724 63.848C317.724 62.888 317.564 61.256 317.244 58.952L317.052 57.944L312.3 57.224C312.108 57.96 311.836 59.448 311.484 61.688C311.292 63.256 310.988 64.296 310.572 64.808C310.348 65.096 310.028 65.24 309.612 65.24C309.228 65.24 308.876 65.128 308.556 64.904C308.236 64.648 308.076 64.344 308.076 63.992L308.172 63.752L308.22 63.56C310.332 55.336 311.932 47.224 313.02 39.224C313.02 39.096 313.036 38.888 313.068 38.6C313.1 38.28 313.132 37.832 313.164 37.256C313.26 36.072 313.356 35.128 313.452 34.424C313.58 33.72 313.772 33.192 314.028 32.84H315.66C316.108 32.84 316.492 32.952 316.812 33.176C317.132 33.368 317.292 33.656 317.292 34.04C317.292 36.472 317.628 40.088 318.3 44.888C318.94 49.816 319.26 53.272 319.26 55.256C319.26 55.448 319.34 55.944 319.5 56.744C319.66 57.48 319.74 57.96 319.74 58.184C319.74 58.408 319.9 59.368 320.22 61.064C320.508 62.6 320.652 63.592 320.652 64.04V64.088C320.652 64.792 320.396 65.24 319.884 65.432ZM316.716 56.216C316.62 55.736 316.572 55.144 316.572 54.44C316.572 51.56 316.316 47.88 315.804 43.4L315.324 38.408C313.948 45.928 313.004 51.608 312.492 55.448C312.972 55.768 314.38 56.024 316.716 56.216ZM331.204 65.672C330.5 65.672 329.748 65.56 328.948 65.336C328.18 65.144 327.588 64.92 327.172 64.664C325.028 63.288 323.956 59.528 323.956 53.384V52.088V50.6V49.448C323.956 48.168 323.972 47.032 324.004 46.04C324.036 45.016 324.1 43.912 324.196 42.728C324.292 41.48 324.436 40.472 324.628 39.704C324.82 38.904 325.14 38.008 325.588 37.016C325.972 36.088 326.436 35.368 326.98 34.856C327.556 34.344 328.292 33.912 329.188 33.56C329.988 33.208 330.98 33.032 332.164 33.032C332.644 33.032 333.012 33.144 333.268 33.368C333.524 33.592 333.652 33.88 333.652 34.232C333.652 34.552 333.54 34.84 333.316 35.096C333.124 35.352 332.884 35.496 332.596 35.528H330.34C329.7 35.528 329.14 35.928 328.66 36.728C328.18 37.528 327.844 38.568 327.652 39.848C327.236 42.216 327.028 44.136 327.028 45.608V45.848L326.932 50.456C326.868 51.832 326.836 53.384 326.836 55.112C326.836 56.328 326.884 57.32 326.98 58.088C327.14 59.24 327.412 60.2 327.796 60.968C328.18 61.832 328.836 62.456 329.764 62.84C330.244 63.032 330.772 63.128 331.348 63.128C331.7 63.128 332.052 63 332.404 62.744C332.82 62.744 333.156 62.84 333.412 63.032C333.7 63.192 333.844 63.448 333.844 63.8C333.844 65.048 332.964 65.672 331.204 65.672ZM346.626 65C345.538 65 344.994 62.36 344.994 57.08L345.042 54.344L345.09 52.136V51.992V51.512C345.122 51.256 345.138 50.952 345.138 50.6C345.138 50.536 345.09 50.456 344.994 50.36C344.898 50.264 344.85 50.184 344.85 50.12V50.072C344.69 50.136 344.402 50.168 343.986 50.168C343.57 50.168 343.058 50.104 342.45 49.976C342.258 49.944 341.746 49.864 340.914 49.736V55.256C340.914 56.088 340.962 57.4 341.058 59.192C341.154 60.952 341.202 62.264 341.202 63.128C341.202 63.608 341.074 64.024 340.818 64.376C340.562 64.728 340.226 64.904 339.81 64.904C339.202 64.904 338.77 64.312 338.514 63.128C338.258 61.912 338.13 60.328 338.13 58.376L338.226 54.488C338.258 53.4 338.274 52.248 338.274 51.032V50.216V49.544C338.274 49.032 338.258 48.696 338.226 48.536V48.296L338.37 45.512C338.37 44.296 338.322 42.488 338.226 40.088C338.13 37.688 338.082 35.88 338.082 34.664C338.082 34.28 338.21 33.944 338.466 33.656C338.722 33.368 339.042 33.224 339.426 33.224C340.45 33.224 340.962 34.184 340.962 36.104L340.866 42.056C340.802 43.848 340.77 45.848 340.77 48.056C341.25 48.216 342.114 48.296 343.362 48.296H345.138C345.202 48.104 345.234 47.912 345.234 47.72C345.234 46.184 345.138 43.912 344.946 40.904C344.722 38.088 344.61 35.8 344.61 34.04C344.61 33.688 344.738 33.4 344.994 33.176C345.282 32.92 345.618 32.792 346.002 32.792C346.226 32.792 346.546 32.872 346.962 33.032L347.394 33.224C347.394 37.768 347.554 43.832 347.874 51.416L348.306 63.56C348.306 64.008 348.13 64.36 347.778 64.616C347.458 64.872 347.074 65 346.626 65ZM365.522 66.056C364.37 66.056 363.378 65.848 362.546 65.432C362.034 65.144 361.778 64.808 361.778 64.424C361.778 64.04 361.874 63.736 362.066 63.512C362.258 63.256 362.53 63.128 362.882 63.128C363.202 63.128 363.666 63.256 364.274 63.512C364.946 63.768 365.362 63.896 365.522 63.896C366.13 63.896 366.674 63.64 367.154 63.128C367.666 62.584 368.066 61.88 368.354 61.016C368.93 59.416 369.218 57.976 369.218 56.696C369.218 55.32 368.994 53.88 368.546 52.376C368.13 50.84 367.554 49.352 366.818 47.912L366.05 46.376C365.25 44.776 364.626 43.512 364.178 42.584C363.762 41.656 363.394 40.648 363.074 39.56C362.594 38.024 362.354 36.536 362.354 35.096C362.354 33.944 362.546 32.856 362.93 31.832C363.346 30.808 363.954 29.944 364.754 29.24C365.554 28.472 366.546 28.088 367.73 28.088C368.306 28.088 368.866 28.264 369.41 28.616C369.954 28.936 370.338 29.352 370.562 29.864L369.746 30.872C368.914 30.872 368.29 30.712 367.874 30.392C367.298 30.456 366.786 30.744 366.338 31.256C365.922 31.736 365.602 32.296 365.378 32.936C365.186 33.544 365.09 34.152 365.09 34.76C365.09 35.976 365.25 37.224 365.57 38.504C365.922 39.752 366.37 40.936 366.914 42.056L370.274 48.776C370.818 49.928 371.25 51.224 371.57 52.664C371.89 54.104 372.05 55.544 372.05 56.984C372.05 59.096 371.538 61.08 370.514 62.936C369.97 63.896 369.266 64.648 368.402 65.192C367.538 65.768 366.578 66.056 365.522 66.056ZM380.241 64.232L380.193 62.36C380.161 61.816 380.145 61.208 380.145 60.536L380.193 58.904C380.097 58.552 379.857 55.048 379.473 48.392C379.089 41.736 378.865 37.464 378.801 35.576C376.945 35.512 375.761 35.32 375.249 35C374.897 34.744 374.721 34.456 374.721 34.136C374.721 33.88 374.881 33.656 375.201 33.464C375.553 33.24 375.905 33.128 376.257 33.128C377.153 33.128 378.241 33.192 379.521 33.32C380.737 33.48 381.825 33.56 382.785 33.56H383.169H383.553C384.545 33.56 385.041 33.944 385.041 34.712C385.041 35.096 384.881 35.416 384.561 35.672C384.241 35.896 383.873 36.008 383.457 36.008C383.169 36.008 382.753 35.96 382.209 35.864L381.249 35.672L381.201 35.912L381.153 36.152C381.153 39 381.425 43.544 381.969 49.784C382.481 55.64 382.737 60.184 382.737 63.416C382.737 63.8 382.561 64.136 382.209 64.424C381.889 64.712 381.521 64.856 381.105 64.856L380.241 64.232ZM395.45 65.912C394.618 65.912 393.85 65.64 393.146 65.096C392.442 64.584 391.866 63.88 391.418 62.984C390.49 61.032 389.914 58.904 389.69 56.6C389.402 54.424 389.258 52.328 389.258 50.312C389.258 49.928 389.274 49.608 389.306 49.352V48.488C389.306 48.328 389.29 48.248 389.258 48.248V47.384L389.306 44.024C389.338 43 389.466 41.368 389.69 39.128C389.85 37.592 390.218 36.104 390.794 34.664C391.018 34.024 391.306 33.544 391.658 33.224C392.01 32.872 392.41 32.696 392.858 32.696C394.138 32.696 395.29 32.936 396.314 33.416C397.338 33.864 398.202 34.504 398.906 35.336C399.546 36.136 400.09 37.128 400.538 38.312C400.986 39.464 401.306 40.696 401.498 42.008C401.69 43.352 401.786 44.776 401.786 46.28V46.664C401.786 47.656 401.802 48.552 401.834 49.352L401.882 52.088C401.882 61.304 399.738 65.912 395.45 65.912ZM395.258 63.896C395.834 63.896 396.362 63.672 396.842 63.224C397.322 62.744 397.69 62.104 397.946 61.304C398.554 59.672 398.922 57.912 399.05 56.024C399.21 54.392 399.29 52.984 399.29 51.8C399.29 50.36 399.178 48.472 398.954 46.136C398.762 43.672 398.666 41.832 398.666 40.616V39.752C398.602 38.536 398.186 37.48 397.418 36.584C396.682 35.688 395.77 35.24 394.682 35.24C393.594 35.24 392.874 35.864 392.522 37.112C392.202 38.104 392.042 39.384 392.042 40.952C392.042 41.56 392.058 42.072 392.09 42.488V43.784L391.994 45.992C391.93 46.664 391.898 47.4 391.898 48.2C391.898 49.928 391.946 51.64 392.042 53.336C392.17 55.736 392.49 58.072 393.002 60.344C393.514 62.712 394.266 63.896 395.258 63.896ZM415.531 65.816C414.827 65.816 414.187 65.048 413.611 63.512C412.939 61.848 412.443 60.136 412.123 58.376L411.787 56.744C410.859 52.168 410.267 49.56 410.011 48.92H409.435C409.435 49.848 409.419 50.696 409.387 51.464V54.104C409.387 58.392 409.691 61.736 410.299 64.136L409.771 65.432H408.427L407.803 64.712L407.851 61.496C407.851 58.616 407.707 54.248 407.419 48.392C407.163 42.152 407.035 37.784 407.035 35.288C407.035 33.752 407.563 32.984 408.619 32.984C410.347 32.984 411.755 33.432 412.843 34.328C413.963 35.224 414.523 36.472 414.523 38.072V41.432C414.523 41.912 414.443 42.472 414.283 43.112C414.123 43.72 413.947 44.216 413.755 44.6L412.843 46.328L412.075 47.768L412.315 48.92L412.987 52.328C413.435 54.792 413.867 56.792 414.283 58.328C414.699 59.864 415.211 61.256 415.819 62.504L416.107 63.08C416.427 63.72 416.587 64.232 416.587 64.616C416.587 64.936 416.491 65.208 416.299 65.432C416.107 65.688 415.851 65.816 415.531 65.816ZM409.627 46.568C410.331 46.216 410.923 45.256 411.403 43.688C411.915 42.088 412.171 40.616 412.171 39.272C412.171 38.248 412.043 37.288 411.787 36.392C411.627 35.88 411.355 35.496 410.971 35.24C410.619 34.952 410.171 34.808 409.627 34.808L409.531 35.048L409.435 35.48L409.531 41.144C409.595 42.808 409.627 44.616 409.627 46.568ZM423.495 65.624C423.079 65.624 422.695 65.48 422.343 65.192C422.023 64.904 421.847 64.552 421.815 64.136V62.888V61.928C421.783 61.64 421.767 61.304 421.767 60.92C421.767 60.248 421.719 59.224 421.623 57.848L421.527 54.776C421.527 53.208 421.575 50.872 421.671 47.768C421.799 44.984 421.863 42.648 421.863 40.76C421.863 40.312 421.815 39.64 421.719 38.744C421.623 37.816 421.575 37.144 421.575 36.728C421.575 34.456 422.247 33.32 423.591 33.32C424.647 33.32 425.863 33.528 427.239 33.944C428.647 34.36 429.351 34.856 429.351 35.432C429.351 35.752 429.207 36.056 428.919 36.344C428.663 36.6 428.343 36.808 427.959 36.968C426.615 36.488 425.399 36.168 424.311 36.008C424.343 36.488 424.359 37.176 424.359 38.072C424.359 39.352 424.343 40.504 424.311 41.528C424.215 43.064 424.167 44.216 424.167 44.984L424.311 45.752L425.079 45.704C425.335 45.672 425.655 45.656 426.039 45.656C427.575 45.656 428.343 46.104 428.343 47C428.343 47.352 428.199 47.656 427.911 47.912C427.623 48.136 427.255 48.248 426.807 48.248C426.231 48.248 425.783 48.216 425.463 48.152H424.263C424.327 48.984 424.359 50.2 424.359 51.8C424.359 53.4 424.343 54.84 424.311 56.12C424.215 58.072 424.167 59.528 424.167 60.488C424.167 62.28 424.199 63.176 424.263 63.176L425.847 63.128C426.391 63.096 427.047 63.08 427.815 63.08C429.031 63.08 429.639 63.464 429.639 64.232C429.639 64.68 429.431 65.016 429.015 65.24C428.631 65.496 428.151 65.624 427.575 65.624H423.495ZM451.998 65.864C450.014 65.864 448.446 65 447.294 63.272C446.046 61.512 445.166 59.352 444.654 56.792C444.078 54.072 443.71 51.16 443.55 48.056C443.39 45.24 443.31 42.184 443.31 38.888V34.904C443.342 33.784 443.358 32.6 443.358 31.352C443.102 31.096 442.974 30.776 442.974 30.392C442.974 30.008 443.118 29.672 443.406 29.384C443.694 29.064 444.014 28.904 444.366 28.904C445.518 28.904 446.094 30.04 446.094 32.312C446.094 33.784 446.174 36.568 446.334 40.664C446.494 44.76 446.574 47.544 446.574 49.016C446.734 49.432 446.878 50.264 447.006 51.512C447.166 52.76 447.246 53.784 447.246 54.584C447.246 55.288 447.358 56.168 447.582 57.224C447.806 58.248 448.126 59.288 448.542 60.344C448.958 61.464 449.502 62.392 450.174 63.128C450.846 63.832 451.55 64.184 452.286 64.184C452.734 64.184 453.102 64.04 453.39 63.752C453.71 63.464 453.918 63.048 454.014 62.504C454.206 61.608 454.302 60.728 454.302 59.864V50.504C454.302 49.32 454.19 47.816 453.966 45.992C453.774 43.976 453.678 42.456 453.678 41.432V41.096C453.678 40.584 453.662 40.12 453.63 39.704L453.582 38.312C453.582 37.416 453.534 36.056 453.438 34.232C453.31 32.6 453.246 31.224 453.246 30.104C453.246 29.752 453.422 29.448 453.774 29.192C454.158 28.936 454.574 28.808 455.022 28.808L456.222 29.912V30.728C456.222 31.112 456.158 31.576 456.03 32.12C455.902 33.016 455.838 33.528 455.838 33.656C455.838 36.568 455.998 40.584 456.318 45.704C456.606 51.08 456.75 55.256 456.75 58.232C456.75 59.832 456.59 61.24 456.27 62.456C456.078 63.192 455.806 63.784 455.454 64.232C455.134 64.68 454.686 65.064 454.11 65.384C453.566 65.704 452.862 65.864 451.998 65.864ZM476.063 65.144C475.679 65.144 475.391 65.048 475.199 64.856C475.007 64.632 474.863 64.264 474.767 63.752L474.479 62.84V62.744V62.6C474.479 61.544 473.375 57.944 471.167 51.8C468.991 45.656 467.279 41.112 466.031 38.168V62.312L466.223 62.648C466.255 62.712 466.319 62.824 466.415 62.984C466.511 63.144 466.559 63.304 466.559 63.464C466.559 63.88 466.415 64.232 466.127 64.52C465.839 64.808 465.487 64.952 465.071 64.952C464.047 64.952 463.535 63.976 463.535 62.024L463.487 53.816C463.455 51.352 463.439 48.6 463.439 45.56C463.439 44.536 463.487 43.048 463.583 41.096C463.679 39.08 463.727 37.592 463.727 36.632C463.727 35.128 464.303 33.944 465.455 33.08V33.368C465.647 33.304 465.775 33.272 465.839 33.272C466.575 33.272 467.503 34.552 468.623 37.112C469.519 39.16 470.319 41.32 471.023 43.592C471.759 45.864 472.719 49.096 473.903 53.288L474.383 55.016C475.119 57.608 475.679 59.464 476.063 60.584C476.703 53.704 477.023 45.576 477.023 36.2V35.576C476.991 35.384 476.975 35.176 476.975 34.952C476.975 33.992 477.359 33.512 478.127 33.512C478.575 33.512 478.911 33.688 479.135 34.04C479.391 34.392 479.519 34.84 479.519 35.384V38.984C479.455 43.912 479.263 49.256 478.943 55.016C478.623 60.776 478.239 64.024 477.791 64.76C476.863 65.016 476.287 65.144 476.063 65.144ZM488.328 64.952C485.544 64.952 484.152 64.472 484.152 63.512C484.152 62.744 484.648 62.36 485.64 62.36H486.168L486.648 62.408C486.904 62.408 487.08 62.328 487.176 62.168C487.272 62.008 487.32 61.72 487.32 61.304C487.32 60.76 487.288 59.912 487.224 58.76C487.128 57.992 487.016 56.616 486.888 54.632C486.6 49.736 486.456 46.04 486.456 43.544C486.456 42.648 486.472 41.832 486.504 41.096L486.552 38.648C486.552 37.592 486.504 36.712 486.408 36.008C485.896 36.136 485.528 36.2 485.304 36.2C484.536 36.2 484.152 35.816 484.152 35.048C484.152 34.664 484.392 34.328 484.872 34.04C485.352 33.752 485.96 33.544 486.696 33.416C487.976 33.16 489.112 33.032 490.104 33.032C490.488 33.032 490.808 33.176 491.064 33.464C491.352 33.72 491.496 34.024 491.496 34.376C491.496 34.728 491.384 35.032 491.16 35.288C490.968 35.544 490.712 35.672 490.392 35.672C490.2 35.672 490.04 35.656 489.912 35.624H489.528C489.208 35.624 488.968 35.704 488.808 35.864C488.68 35.992 488.616 36.248 488.616 36.632C488.616 39.736 488.808 44.408 489.192 50.648C489.256 51.8 489.384 53.496 489.576 55.736C489.736 57.208 489.816 58.712 489.816 60.248V62.072C490.008 62.04 490.328 62.024 490.776 62.024C492.12 62.024 492.792 62.584 492.792 63.704V63.992L491.592 64.808C491.56 64.808 491.448 64.824 491.256 64.856C491.096 64.856 490.776 64.856 490.296 64.856C489.272 64.92 488.616 64.952 488.328 64.952ZM506.788 75.128C504.996 75.128 503.764 74.76 503.092 74.024C503.092 73.384 503.044 72.648 502.948 71.816L502.852 70.808C502.628 69.496 502.5 68.776 502.468 68.648L502.228 67.496C502.1 66.792 502.036 66.44 502.036 66.44C500.276 66.024 498.996 65.16 498.196 63.848C497.332 62.472 496.772 60.856 496.516 59C496.292 57.432 496.18 55.448 496.18 53.048C496.18 51.96 496.196 50.984 496.228 50.12V47.336C496.228 46.216 496.324 44.456 496.516 42.056C496.74 39.848 497.236 37.8 498.004 35.912C498.388 34.952 498.884 34.216 499.492 33.704C500.132 33.192 500.852 32.936 501.652 32.936C501.908 33.032 502.292 33.128 502.804 33.224C503.348 33.384 503.684 33.496 503.812 33.56C505.316 34.136 506.42 35.176 507.124 36.68C507.828 38.152 508.26 39.704 508.42 41.336C508.58 42.84 508.66 44.392 508.66 45.992L508.612 50.6C508.516 52.616 508.34 54.712 508.084 56.888C507.892 58.872 507.476 60.84 506.836 62.792C506.228 64.584 505.412 65.704 504.388 66.152C504.388 67.176 504.644 68.664 505.156 70.616C505.348 71.192 505.524 71.864 505.684 72.632C507.156 72.632 507.892 73.096 507.892 74.024C507.892 74.344 507.78 74.616 507.556 74.84C507.364 75.064 507.108 75.176 506.788 75.176V75.128ZM501.892 64.856C502.34 64.664 502.804 64.568 503.284 64.568C503.636 64.568 504.036 63.816 504.484 62.312C504.932 60.808 505.316 59.096 505.636 57.176C505.956 55.256 506.116 53.864 506.116 53V44.648C506.116 38.088 504.532 34.808 501.364 34.808C500.82 34.808 500.356 35.416 499.972 36.632C499.364 38.424 498.948 41.4 498.724 45.56C498.628 46.84 498.58 47.864 498.58 48.632L498.628 52.184C498.66 53.016 498.74 54.328 498.868 56.12C498.868 56.44 498.9 56.952 498.964 57.656C499.092 59.224 499.428 60.888 499.972 62.648C500.42 64.12 501.06 64.856 501.892 64.856ZM519.095 65.72C518.327 65.72 517.639 65.544 517.031 65.192C516.423 64.872 515.927 64.392 515.543 63.752C514.775 62.408 514.279 60.888 514.055 59.192C513.831 57.72 513.719 55.96 513.719 53.912C513.623 50.456 513.575 46.232 513.575 41.24L513.527 37.544C513.495 37.352 513.479 37.032 513.479 36.584C513.415 35.368 513.383 34.632 513.383 34.376C513.671 33.704 514.007 33.368 514.391 33.368C514.775 33.368 515.111 33.656 515.399 34.232C515.719 34.808 515.879 35.432 515.879 36.104V49.16C515.879 50.44 515.991 52.136 516.215 54.248C516.439 56.872 516.551 58.568 516.551 59.336C516.551 61.704 517.559 62.888 519.575 62.888C521.879 62.888 523.031 54.28 523.031 37.064V34.376V33.944C522.999 33.848 522.983 33.72 522.983 33.56C522.983 33.176 523.063 32.904 523.223 32.744C523.415 32.552 523.767 32.456 524.279 32.456C524.695 32.456 525.015 32.584 525.239 32.84C525.495 33.064 525.655 33.336 525.719 33.656C525.751 33.848 525.767 34.216 525.767 34.76C525.767 35.272 525.719 36.088 525.623 37.208C525.495 38.136 525.431 38.936 525.431 39.608C525.431 40.344 525.399 41 525.335 41.576L525.239 43.592V43.976C525.271 44.104 525.287 44.248 525.287 44.408C525.287 58.616 523.223 65.72 519.095 65.72ZM533.511 65.624C533.095 65.624 532.711 65.48 532.359 65.192C532.039 64.904 531.863 64.552 531.831 64.136V62.888V61.928C531.799 61.64 531.783 61.304 531.783 60.92C531.783 60.248 531.735 59.224 531.639 57.848L531.543 54.776C531.543 53.208 531.591 50.872 531.687 47.768C531.815 44.984 531.879 42.648 531.879 40.76C531.879 40.312 531.831 39.64 531.735 38.744C531.639 37.816 531.591 37.144 531.591 36.728C531.591 34.456 532.263 33.32 533.607 33.32C534.663 33.32 535.879 33.528 537.255 33.944C538.663 34.36 539.367 34.856 539.367 35.432C539.367 35.752 539.223 36.056 538.935 36.344C538.679 36.6 538.359 36.808 537.975 36.968C536.631 36.488 535.415 36.168 534.327 36.008C534.359 36.488 534.375 37.176 534.375 38.072C534.375 39.352 534.359 40.504 534.327 41.528C534.231 43.064 534.183 44.216 534.183 44.984L534.327 45.752L535.095 45.704C535.351 45.672 535.671 45.656 536.055 45.656C537.591 45.656 538.359 46.104 538.359 47C538.359 47.352 538.215 47.656 537.927 47.912C537.639 48.136 537.271 48.248 536.823 48.248C536.247 48.248 535.799 48.216 535.479 48.152H534.279C534.343 48.984 534.375 50.2 534.375 51.8C534.375 53.4 534.359 54.84 534.327 56.12C534.231 58.072 534.183 59.528 534.183 60.488C534.183 62.28 534.215 63.176 534.279 63.176L535.863 63.128C536.407 63.096 537.063 63.08 537.831 63.08C539.047 63.08 539.655 63.464 539.655 64.232C539.655 64.68 539.447 65.016 539.031 65.24C538.647 65.496 538.167 65.624 537.591 65.624H533.511ZM548.112 59.768C547.472 59.768 547.088 59.416 546.96 58.712C546.96 56.76 547.104 54.632 547.392 52.328C547.712 50.024 548.16 47.224 548.736 43.928L548.976 42.536C549.424 39.752 549.648 37.416 549.648 35.528C549.648 32.552 549.168 31.064 548.208 31.064C547.6 31.064 547.296 31.784 547.296 33.224C547.296 33.576 547.408 34.44 547.632 35.816C547.632 35.848 547.552 35.944 547.392 36.104C546.848 36.584 546.448 36.824 546.192 36.824C545.296 36.824 544.848 35.752 544.848 33.608V33.128C544.848 32.296 544.928 31.592 545.088 31.016C545.28 30.408 545.616 29.88 546.096 29.432C546.64 28.984 547.312 28.76 548.112 28.76C548.816 28.76 549.424 28.888 549.936 29.144C550.448 29.4 550.864 29.752 551.184 30.2C551.696 30.968 552.016 32.104 552.144 33.608C552.176 33.96 552.192 34.584 552.192 35.48C552.192 38.296 551.712 41.368 550.752 44.696C550.336 46.072 549.984 47.816 549.696 49.928C549.408 52.008 549.264 54.168 549.264 56.408C549.264 58.168 549.28 59.24 549.312 59.624C548.736 59.624 548.416 59.656 548.352 59.72C548.288 59.752 548.208 59.768 548.112 59.768ZM548.112 65.192C547.632 65.192 547.248 65 546.96 64.616C546.608 64.296 546.432 63.896 546.432 63.416C546.432 62.968 546.624 62.552 547.008 62.168C547.392 61.752 547.824 61.544 548.304 61.544C548.688 61.544 549.072 61.752 549.456 62.168C549.84 62.584 550.032 62.984 550.032 63.368C550.032 64.584 549.392 65.192 548.112 65.192Z" fill="#E4E0E0"/>
</svg>
